<svg width="54" height="54" viewBox="0 0 54 54" xmlns="http://www.w3.org/2000/svg"><g fill="#000" fill-rule="evenodd"><path d="M14.655 21.855a.725.725 0 0 0 .728-.72.725.725 0 0 0-.728-.72H9.1c1.634-3.402 7-12.32 17.95-12.32s17.592 8.799 18.3 13.677h1.47c-.718-5.676-8.137-15.114-19.77-15.114-11.634 0-16.955 8.966-18.939 12.506V13.94a.724.724 0 0 0-.727-.72.725.725 0 0 0-.727.72v7.194c0 .698.727.72.727.72h7.271zM39.705 32.159a.726.726 0 0 0-.728.72c0 .395.327.719.728.719h5.555c-1.634 3.403-7 12.319-17.95 12.319S9.718 37.12 9.01 32.242H7.54c.718 5.675 8.136 15.114 19.77 15.114 11.633 0 16.955-8.966 18.94-12.506v5.223c0 .396.324.719.726.719a.724.724 0 0 0 .727-.72V32.88c0-.7-.727-.72-.727-.72h-7.27z"/></g></svg>