<svg width="54" height="54" viewBox="0 0 54 54" xmlns="http://www.w3.org/2000/svg"><path d="M27.954 8.004c-4.752 0-6.71 1.88-8.14 3.9-2.654 3.792-1.094 9.124-1.08 9.174.42 1.25-.424 2.036-.704 2.294-.244.226-.334.31-.37.706-.02.27.026.374.47 1.016.5.728 1.26 1.828 1.804 3.828.512 1.88.886 2.312 2.276 3.92.28.32.59.684.944 1.1.424.504 1.548 1.836 1.02 3.268-.556 1.52-2.3 1.735-4.506 2.014l-.956.126c-3.288.452-5.556 1.55-6.746 3.268-1.21 1.74-.884 3.564-.872 3.64.074.862.182 1.031.28 1.71L28.501 48H44.35c.096-.679.204-.88.28-1.742.011-.076.337-1.9-.873-3.64-1.19-1.718-3.458-2.816-6.746-3.268l-.957-.126c-2.205-.279-3.95-.494-4.506-2.014-.528-1.432.596-2.764 1.02-3.268l.95-1.106c1.387-1.604 1.76-2.036 2.27-3.912.54-2.006 1.3-3.1 1.805-3.832.44-.64.492-.746.466-1.014-.014-.15-.04-.206-.04-.206-1.566-.73-1.28-1.98-1.16-2.34.016-.05 1.686-5.852-.96-9.628-.352-.5-.746-.606-1.94-.86-.75-.16-1.686-.364-2.804-.792-1.726-.656-2.45-1.45-2.932-1.974-.092-.1-.22-.24-.268-.274m-.528 1.267c.541.58 1.433 1.455 3.278 2.156 1.235.473 2.292.698 2.992.848.358.076 1.024.217 1.132.301 0 0 .013.011.04.05 2.23 3.181.866 8.253.787 8.536-.315.978-.214 2.291.882 3.244-.52.752-1.377 2.004-1.965 4.188-.436 1.602-.676 1.88-2.01 3.422l-.96 1.12c-.498.591-2.015 2.394-1.236 4.506.818 2.236 3.205 2.537 5.523 2.83l.95.125c2.923.401 4.902 1.322 5.884 2.74a3.919 3.919 0 0 1 .662 2.725l-.007.044-.004.044a7.699 7.699 0 0 1-.072.592H28.505l-16.089-.03a6.526 6.526 0 0 1-.068-.562l-.006-.054-.008-.047c-.024-.146-.208-1.458.666-2.715.98-1.415 2.96-2.336 5.876-2.737l.966-.127c2.31-.29 4.695-.592 5.512-2.825.78-2.115-.736-3.918-1.242-4.518-.358-.42-.672-.79-.952-1.11-1.335-1.544-1.576-1.823-2.012-3.425-.597-2.195-1.459-3.449-1.984-4.214l-.145-.212c1.332-1.326 1.16-2.714.918-3.456-.106-.383-1.303-4.926.904-8.079 1.106-1.563 2.618-3.225 6.585-3.36" fill="#000" fill-rule="evenodd"/></svg>