<svg xmlns="http://www.w3.org/2000/svg" width="1024" height="1024" viewBox="0 0 1024 1024"><path fill="#e4405f" d="M512 0C372.928 0 355.52.64 300.928 3.072 246.4 5.632 209.28 14.208 176.64 26.88c-33.664 13.056-62.272 30.592-90.688 59.072-28.48 28.416-46.08 56.96-59.072 90.688C14.208 209.28 5.568 246.4 3.072 300.928.512 355.52 0 372.928 0 512s.64 156.48 3.072 211.072C5.632 777.6 14.208 814.784 26.88 847.36c13.056 33.664 30.592 62.272 59.072 90.688 28.416 28.48 56.96 46.08 90.688 59.072 32.64 12.672 69.76 21.312 124.288 23.808 54.592 2.56 72 3.072 211.072 3.072s156.48-.64 211.072-3.072c54.528-2.56 91.712-11.136 124.288-23.808 33.664-13.056 62.272-30.592 90.688-59.072 28.48-28.416 46.08-56.96 59.072-90.688 12.672-32.64 21.312-69.76 23.808-124.288 2.56-54.592 3.072-72 3.072-211.072s-.64-156.48-3.072-211.072c-2.56-54.528-11.136-91.712-23.808-124.288-13.056-33.664-30.592-62.272-59.072-90.688-28.416-28.48-56.96-46.08-90.688-59.072C814.72 14.208 777.6 5.568 723.072 3.072 668.48.512 651.072 0 512 0zm0 92.16c136.704 0 152.96.64 206.912 3.072 49.92 2.304 76.992 10.624 95.04 17.664 23.936 9.28 40.96 20.352 58.88 38.272s28.992 34.944 38.272 58.88c7.04 18.048 15.36 45.12 17.664 95.04 2.432 54.016 3.008 70.208 3.008 206.912s-.64 152.96-3.2 206.912c-2.56 49.92-10.88 76.992-17.92 95.04-9.6 23.936-20.48 40.96-38.4 58.88s-35.2 28.992-58.88 38.272c-17.92 7.04-45.44 15.36-95.36 17.664-54.4 2.432-70.4 3.008-207.36 3.008s-152.96-.64-207.36-3.2c-49.92-2.56-77.44-10.88-95.36-17.92-24.32-9.6-40.96-20.48-58.88-38.4s-29.44-35.2-38.4-58.88c-7.04-17.92-15.36-45.44-17.92-95.36-1.92-53.76-2.56-70.4-2.56-206.72s.64-152.96 2.56-207.36c2.56-49.92 10.88-77.44 17.92-95.36 8.96-24.32 20.48-40.96 38.4-58.88s34.56-29.44 58.88-38.4c17.92-7.04 44.8-15.36 94.72-17.92 54.4-1.92 70.4-2.56 207.36-2.56zm0 156.928c-145.28 0-262.912 117.76-262.912 262.912 0 145.28 117.76 262.912 262.912 262.912 145.28 0 262.912-117.76 262.912-262.912 0-145.28-117.76-262.912-262.912-262.912zm0 433.6c-94.272 0-170.688-76.416-170.688-170.688S417.728 341.312 512 341.312c94.272 0 170.688 76.416 170.688 170.688S606.272 682.688 512 682.688zM846.72 238.72c0 33.92-27.52 61.44-61.44 61.44s-61.44-27.52-61.44-61.44 27.52-61.44 61.44-61.44 61.44 27.52 61.44 61.44z"/></svg>