<svg width="54" height="54" viewBox="0 0 54 54" xmlns="http://www.w3.org/2000/svg"><path d="M39.628 36.941H14.315a.4.4 0 0 1-.4-.4v-.173l8.649-9.577 3.662 2.761a1.256 1.256 0 0 0 1.515 0l3.588-2.705 8.699 9.633v.061a.4.4 0 0 1-.4.4zm-18.073-10.91l-7.64 8.461v-14.22l7.64 5.76zm-7.24-7.514h25.313c.158 0 .293.094.358.23l-13.003 9.8-13.018-9.813a.398.398 0 0 1 .35-.217zm25.713 16.086l-7.691-8.516 7.69-5.798v14.314zm-.4-17.344H14.315a1.66 1.66 0 0 0-1.658 1.658v17.624a1.66 1.66 0 0 0 1.658 1.658h25.313a1.66 1.66 0 0 0 1.658-1.658V18.917a1.66 1.66 0 0 0-1.658-1.658z" fill="#000" fill-rule="evenodd"/></svg>