<svg width="54" height="54" viewBox="0 0 54 54" xmlns="http://www.w3.org/2000/svg"><path d="M20.13 12.885c-.748 0-1.531.31-2.395.947a7.504 7.504 0 0 0-1.656 1.685c-1.1 1.399-1.998 4.079-.942 7.08.762 2.166 11.419 16.639 13.26 18.007 1.778 1.324 3.534 1.602 4.694 1.602.828 0 1.658-.144 2.343-.406a7.575 7.575 0 0 0 2.102-1.078c1.02-.751 1.578-1.538 1.707-2.407.195-1.313-.62-2.404-1.481-3.557a42.692 42.692 0 0 1-.558-.758c-.92-1.265-1.787-2.46-3.346-2.46-.732 0-1.487.274-2.375.862-.22.144-.441.212-.697.212-1.143 0-2.9-1.37-4.61-3.587l-.11-.147-.075-.1-.14-.185-.183-.258-.371-.53c-1.443-2.155-2.57-4.767-1.408-5.717 2.86-2.336 1.367-4.336.169-5.943l-.28-.375-.28-.385c-.934-1.287-1.817-2.502-3.367-2.502m0 1.258c.867 0 1.43.717 2.369 2.01l.266.365.283.38c1.332 1.785 1.89 2.71.044 4.218-1.58 1.29-1.168 3.915 1.173 7.413l.37.529.212.294.14.186.07.092.122.165c1.174 1.523 3.464 4.077 5.606 4.077.499 0 .967-.141 1.39-.421.673-.445 1.207-.652 1.682-.652.876 0 1.427.7 2.328 1.94l.279.383.235.317.055.072c.847 1.135 1.354 1.877 1.244 2.619-.077.52-.472 1.037-1.208 1.578a6.293 6.293 0 0 1-1.75.897l-.028.009-.028.01c-.545.209-1.217.324-1.894.324-.97 0-2.441-.235-3.943-1.353-1.611-1.198-12.158-15.52-12.824-17.415-.886-2.518-.153-4.744.744-5.885l.018-.024.018-.024a6.26 6.26 0 0 1 1.377-1.403c.64-.472 1.18-.701 1.65-.701" fill="#000" fill-rule="evenodd"/></svg>