<svg width="54" height="54" viewBox="0 0 54 54" xmlns="http://www.w3.org/2000/svg"><path d="M27.09 37.384a3.712 3.712 0 0 0-3.708 3.708c0 2.01 1.698 3.707 3.708 3.707a3.711 3.711 0 0 0 3.707-3.707 3.668 3.668 0 0 0-3.707-3.708m1.37-27.839h-2.743c-.863 0-1.622.758-1.622 1.622v6.258l1.048 15.387c.093.738.848 1.385 1.617 1.385h.659c.769 0 1.525-.648 1.62-1.418l1.043-15.425v-6.187c0-.864-.757-1.622-1.621-1.622M27.09 38.642a2.424 2.424 0 0 1 2.449 2.45 2.452 2.452 0 0 1-2.45 2.449c-1.304 0-2.45-1.144-2.45-2.449a2.453 2.453 0 0 1 2.45-2.45m1.372-27.839c.17 0 .364.194.364.364l-.001 6.144-1.037 15.33c-.031.131-.234.298-.368.298h-.66c-.142 0-.336-.172-.365-.271l-1.04-15.286v-6.215c0-.17.194-.364.363-.364h2.744" fill="#000" fill-rule="evenodd"/></svg>