<svg width="54" height="54" viewBox="0 0 54 54" xmlns="http://www.w3.org/2000/svg"><g fill="#000" fill-rule="evenodd"><path d="M27.98 36.484a.63.63 0 0 1-.573-.368c-.25-.548-.645-1.167-1.102-1.882-1.476-2.31-3.497-5.474-3.496-10.546a.629.629 0 1 1 1.257 0c-.002 4.705 1.905 7.69 3.298 9.868.483.757.9 1.41 1.188 2.038a.63.63 0 0 1-.572.89"/><path d="M36.68 33.675c-1.023 2.05-3.417 3.719-6.404 4.467a1.262 1.262 0 0 0-.643.394 1.275 1.275 0 0 0-.722.14c-1.59.849-3.105 1.279-4.499 1.279-2.28 0-4.172-1.143-5.623-3.396-4.31-6.695-2.726-19.473 5.473-26.097.57 5.672 4.455 9.153 7.623 11.992 1.89 1.694 3.675 3.294 4.515 5.07 1.067 2.252 1.163 4.379.28 6.152m.857-6.691c-.949-2.005-2.827-3.688-4.816-5.471-3.383-3.032-7.218-6.47-7.27-12.367a.58.58 0 0 0-.913-.468c-9.612 6.747-11.584 21.142-6.806 28.56 1.696 2.635 4.007 3.974 6.68 3.974 1.568 0 3.262-.465 5.03-1.396.72 2.093.993 4.348.751 6.56a.628.628 0 1 0 1.251.136 16.456 16.456 0 0 0-.82-7.163c3.332-.845 5.99-2.725 7.18-5.113 1.063-2.13.971-4.639-.267-7.253"/></g></svg>