<svg width="54" height="54" viewBox="0 0 54 54" xmlns="http://www.w3.org/2000/svg"><g fill="#000" fill-rule="evenodd"><path d="M37.309 35.25H16.692a.476.476 0 0 1-.475-.475v-1.562h21.568v1.562a.476.476 0 0 1-.476.476zm-21.091-3.294h21.567v-7.062H16.218v7.062zm-.001-8.321h21.567v-2.047H16.217v2.047zm.475-10.357h20.617c.263 0 .476.213.476.475v6.578H16.217v-6.578c0-.262.213-.475.475-.475zm20.617-1.258H16.692c-.957 0-1.733.776-1.733 1.733v21.022c0 .958.776 1.734 1.733 1.734h20.617c.958 0 1.733-.776 1.733-1.734V13.753c0-.957-.775-1.733-1.733-1.733z"/><path d="M34.591 28.56h.733v-.733h-.733v.733zm-.161 1.259h1.056c.606 0 1.097-.491 1.097-1.096v-1.057c0-.606-.491-1.096-1.097-1.096H34.43c-.606 0-1.097.49-1.097 1.096v1.057c0 .605.491 1.096 1.097 1.096zM34.591 16.887h.733v-.733h-.733v.733zm-.161 1.259h1.056c.606 0 1.097-.491 1.097-1.097v-1.057c0-.605-.491-1.095-1.097-1.095H34.43c-.606 0-1.097.49-1.097 1.095v1.057c0 .606.491 1.097 1.097 1.097zM27.629 41.56v-2.201H26.37v2.2H13.826v1.259h26.348V41.56z"/></g></svg>