<svg width="54" height="54" viewBox="0 0 54 54" xmlns="http://www.w3.org/2000/svg"><path d="M36.311 25.834l-1.333-1.097 5.294-6.435 1.333 1.097-5.294 6.435zm-6.5 11.526l-.388-.003c-1.141-.013-2.229-.133-3.189-.24-.86-.095-1.671-.186-2.396-.186-.903 0-2.207.123-3.087 1.183a476.373 476.373 0 0 1-3.093 3.68l-3.056-2.523a591.25 591.25 0 0 1 3.057-3.76c1.14-1.39.625-3.111-.505-6.883l-.374-1.253c-.674-2.275-.378-2.72.874-4.6 1.13-1.695 2.877-3.88 4.419-5.807l.622-.778 15.951 13.275c-6.713 7.896-7.124 7.895-8.835 7.895zm1.916-26.151l1.334 1.097-5.295 6.434-1.333-1.097 5.294-6.434zm10.864 7.372l-1.705-1.403a1.018 1.018 0 0 0-1.433.139l-5.461 6.638-5.275-4.39 5.468-6.646a1.018 1.018 0 0 0-.139-1.432l-1.705-1.403a1.015 1.015 0 0 0-1.432.139l-5.454 6.628-2.036-1.694a1.155 1.155 0 0 0-1.628.149c-1.727 2.167-3.848 4.767-5.184 6.773-1.295 1.943-1.876 2.808-1.033 5.653 1.281 4.326 1.91 6.009 1.112 6.982a690.493 690.493 0 0 0-3.412 4.199.698.698 0 0 0 .104.979l3.9 3.22a.708.708 0 0 0 .45.163.694.694 0 0 0 .531-.245c.672-.79 2.017-2.376 3.46-4.113.463-.557 1.186-.728 2.119-.728 1.429 0 3.348.4 5.571.427.14 0 .273.003.402.003 2.375 0 3.103-.467 9.869-8.427a1.156 1.156 0 0 0-.149-1.628l-2.277-1.895 5.476-6.656a1.018 1.018 0 0 0-.139-1.432z" fill="#000" fill-rule="evenodd"/></svg>