<svg width="54" height="54" viewBox="0 0 54 54" xmlns="http://www.w3.org/2000/svg"><path d="M21.105 40.45l11.808-6.434 1.532 6.433h-13.34zm-.093-6.843h10.023l-11.471 6.248 1.448-6.248zm1.712-7.38l8.683 6.122H21.305l1.42-6.123zm1.599-6.89h3.863l-4.773 3.918.91-3.919zm1.25-5.395h2.564l.985 4.136h-4.509l.96-4.136zm3.97 5.908l1.032 4.337h-6.316l5.284-4.337zM32.3 31.44l-8.502-5.995h7.076L32.3 31.44zm3.436 9.01L29.43 13.941h5.235v2.98h-1.107v1.256h3.471v-1.257h-1.106v-3.45a.786.786 0 0 0-.785-.787H18.862a.786.786 0 0 0-.785.786v3.451h-1.107v1.257h3.471v-1.257h-1.107v-2.979h4.947L18.134 40.45h-3.091v1.258h23.915V40.45h-3.22z" fill="#000" fill-rule="evenodd"/></svg>