<svg width="54" height="54" viewBox="0 0 54 54" xmlns="http://www.w3.org/2000/svg"><g fill="#000" fill-rule="evenodd"><path d="M19.916 19.722h11.206a.629.629 0 0 0 0-1.258H19.916a.63.63 0 0 0 0 1.258M19.916 23.193h6.962a.629.629 0 1 0 0-1.258h-6.961a.63.63 0 0 0 0 1.258M19.916 26.665h11.206a.629.629 0 0 0 0-1.258H19.916a.63.63 0 0 0 0 1.258M19.916 30.136h6.962a.629.629 0 1 0 0-1.258h-6.961a.63.63 0 0 0 0 1.258M23.022 32.736h-3.105a.629.629 0 1 0 0 1.258h3.105a.63.63 0 0 0 0-1.258"/><path d="M33.992 44.875c-4.038 0-7.322-3.285-7.322-7.323 0-4.037 3.284-7.322 7.322-7.322 4.037 0 7.322 3.285 7.322 7.322 0 4.038-3.285 7.323-7.322 7.323zM16.076 40.11a.23.23 0 0 1-.23-.23V13.694c0-.128.103-.232.23-.232h4.994a1.72 1.72 0 0 0 1.573 1.037H29.4c.703 0 1.31-.429 1.574-1.037h4.993c.128 0 .231.104.231.232V29.27a8.576 8.576 0 0 0-2.205-.297A8.58 8.58 0 0 0 25.8 40.11h-9.724zm21.38-10.403v-16.01c0-.824-.668-1.49-1.49-1.49h-4.958a1.718 1.718 0 0 0-1.609-1.139h-6.756c-.74 0-1.369.478-1.609 1.14h-4.958c-.822 0-1.489.665-1.489 1.488v26.183c0 .823.667 1.49 1.49 1.49h10.238c1.405 2.821 4.311 4.765 7.677 4.765a8.581 8.581 0 0 0 8.58-8.58 8.576 8.576 0 0 0-5.117-7.847z"/><path d="M36.836 34.26l-3.854 4.775-1.311-1.443a.822.822 0 0 0-1.162-.05.847.847 0 0 0-.06 1.182l1.957 2.201c.157.172.378.346.61.346h.024c.24 0 .466-.193.617-.382l4.46-5.597a.823.823 0 1 0-1.281-1.033"/></g></svg>