<svg width="54" height="54" viewBox="0 0 54 54" xmlns="http://www.w3.org/2000/svg"><path d="M40.014 30.706v8.054a.116.116 0 0 1-.115.115h-8.054a.116.116 0 0 1-.115-.115v-8.054c0-.063.052-.115.115-.115h8.054c.063 0 .115.052.115.115zm-16.972 0v8.054a.115.115 0 0 1-.115.115h-8.054a.116.116 0 0 1-.115-.115v-8.054c0-.063.052-.115.115-.115h8.054c.064 0 .115.052.115.115zm.066-11.655v-8.054c0-.063.052-.115.115-.115h8.054c.064 0 .115.052.115.115v8.054a.115.115 0 0 1-.115.115h-8.054a.116.116 0 0 1-.115-.115zm18.22 6.456V24.25h-13.45v-3.825h3.399c.758 0 1.373-.615 1.373-1.373v-8.054c0-.758-.615-1.373-1.373-1.373h-8.054c-.758 0-1.373.615-1.373 1.373v8.054c0 .758.615 1.373 1.373 1.373h3.398v3.825H13.17v1.258h5.1v3.826h-3.398c-.758 0-1.373.615-1.373 1.373v8.054c0 .76.615 1.373 1.373 1.373h8.054c.758 0 1.373-.614 1.373-1.373v-8.054c0-.758-.615-1.373-1.373-1.373h-3.398v-3.826h15.714v3.826h-3.398c-.76 0-1.373.615-1.373 1.373v8.054c0 .76.614 1.373 1.373 1.373h8.054c.758 0 1.373-.614 1.373-1.373v-8.054c0-.758-.615-1.373-1.373-1.373H36.5v-3.826h4.827z" fill="#000" fill-rule="evenodd"/></svg>