<svg width="54" height="54" viewBox="0 0 54 54" xmlns="http://www.w3.org/2000/svg"><g fill="#000" fill-rule="evenodd"><path d="M16.217 12.766a.08.08 0 0 1 .08-.081H37.67a.08.08 0 0 1 .08.08V35.16a.081.081 0 0 1-.08.08h-7.85v-3.908c0-.936-.757-1.694-1.693-1.694H25.68c-.936 0-1.694.758-1.694 1.694v3.909h-7.69a.081.081 0 0 1-.08-.081V12.766zm9.028 22.475v-3.91c0-.24.195-.435.436-.435h2.446c.24 0 .436.196.436.436v3.909h-3.318zm5.752-26.256c0-.24.195-.435.435-.435h3.187c.24 0 .436.195.436.435v2.425h-4.058V8.985zm-14.7 27.513H37.67c.739 0 1.339-.6 1.339-1.338V12.766c0-.74-.6-1.34-1.34-1.34h-1.356V8.986c0-.935-.76-1.693-1.694-1.693h-3.187c-.935 0-1.694.758-1.694 1.693v2.442h-13.44c-.74 0-1.34.599-1.34 1.339V35.16c0 .739.6 1.338 1.34 1.338z"/><path d="M18.616 17.883h.956v-1.727h-.956v1.727zm-.902 1.258h2.76a.356.356 0 0 0 .356-.356v-3.531a.356.356 0 0 0-.356-.356h-2.76a.356.356 0 0 0-.356.356v3.531c0 .197.16.356.356.356zM18.616 23.283h.956v-1.727h-.956v1.727zm-.902 1.258h2.76a.356.356 0 0 0 .356-.356v-3.531a.356.356 0 0 0-.356-.356h-2.76a.356.356 0 0 0-.356.356v3.531c0 .197.16.356.356.356zM29.119 17.883h.956v-1.727h-.956v1.727zm-.903 1.258h2.761a.355.355 0 0 0 .355-.356v-3.531a.355.355 0 0 0-.355-.356h-2.761a.355.355 0 0 0-.355.356v3.531c0 .197.159.356.355.356zM29.119 23.283h.956v-1.727h-.956v1.727zm-.903 1.258h2.761a.355.355 0 0 0 .355-.356v-3.531a.355.355 0 0 0-.355-.356h-2.761a.355.355 0 0 0-.355.356v3.531c0 .197.159.356.355.356zM34.37 17.883h.955v-1.727h-.955v1.727zm-.902 1.258h2.76a.355.355 0 0 0 .355-.356v-3.531a.355.355 0 0 0-.355-.356h-2.76a.356.356 0 0 0-.356.356v3.531c0 .197.159.356.356.356zM34.37 23.283h.955v-1.727h-.955v1.727zm-.902 1.258h2.76a.355.355 0 0 0 .355-.356v-3.531a.355.355 0 0 0-.355-.356h-2.76a.356.356 0 0 0-.356.356v3.531c0 .197.159.356.356.356zM34.37 28.683h.955v-1.727h-.955v1.727zm-.902 1.258h2.76a.355.355 0 0 0 .355-.355v-3.532a.356.356 0 0 0-.355-.356h-2.76a.356.356 0 0 0-.356.356v3.532c0 .196.159.355.356.355zM23.868 23.283h.955v-1.727h-.955v1.727zm-.903 1.258h2.761a.355.355 0 0 0 .355-.356v-3.531a.355.355 0 0 0-.355-.356h-2.761a.356.356 0 0 0-.356.356v3.531c0 .197.16.356.356.356zM27.629 41.56v-2.201H26.37v2.2H13.826v1.259h26.348V41.56z"/></g></svg>