<svg width="54" height="54" viewBox="0 0 54 54" xmlns="http://www.w3.org/2000/svg"><path d="M28.378 11.223a.592.592 0 0 0-.144.018l-10.939 2.8a.58.58 0 0 0-.424.676l3.846 19.028a.577.577 0 0 0 .84.396l5.515-2.929 1.27 12.698a.58.58 0 0 0 1.125.121l6.821-21.01a.578.578 0 0 0-.679-.743l-7.713 1.762 1.06-12.188a.581.581 0 0 0-.578-.629m7.51 12.281h.006-.006m-8.27-10.806l-.975 11.233a1.258 1.258 0 0 0 1.533 1.336l6.546-1.496-5.45 16.791-.948-9.475a1.26 1.26 0 0 0-1.842-.986l-4.712 2.502L18.232 15.1l9.386-2.402m.925-.237h.005-.005" fill="#000" fill-rule="evenodd"/></svg>