<svg width="54" height="54" viewBox="0 0 54 54" xmlns="http://www.w3.org/2000/svg"><g fill="#000" fill-rule="evenodd"><path d="M41.534 22.086l-1.25 1.602a.554.554 0 0 1-.442.21.55.55 0 0 1-.339-.114l-10.98-8.572a2.385 2.385 0 0 0-1.462-.502 2.39 2.39 0 0 0-1.464.504l-10.95 8.57a.55.55 0 0 1-.339.115.556.556 0 0 1-.44-.211l-1.252-1.602a.564.564 0 0 1 .097-.781l13.756-10.76a.957.957 0 0 1 1.184 0l13.784 10.76a.563.563 0 0 1 .097.78zm-3.608 14.593a.63.63 0 0 1-.62.622h-20.49a.63.63 0 0 1-.622-.622v-12.51l10.178-7.964a1.115 1.115 0 0 1 1.376-.001l10.178 7.945v12.53zm-4.525-25.872c0-.377.318-.696.696-.696h1.875c.377 0 .696.319.696.696v5.18l-3.267-2.55v-2.63zm8.811 9.508l-4.286-3.346v-6.162a1.96 1.96 0 0 0-1.954-1.954h-1.875a1.96 1.96 0 0 0-1.955 1.954v1.647l-3.715-2.9a2.218 2.218 0 0 0-2.733 0l-13.756 10.76a1.818 1.818 0 0 0-.313 2.546l1.25 1.602c.356.457.892.696 1.433.696.213 0 .424-.046.628-.121v11.642c0 1.034.846 1.879 1.88 1.879h20.49a1.884 1.884 0 0 0 1.878-1.88V25.022c.213.084.434.137.658.137.541 0 1.077-.24 1.433-.696l1.25-1.602a1.818 1.818 0 0 0-.313-2.545z"/><path d="M20.595 32.295a.577.577 0 0 1-.288-1.08l12.813-7.358a.579.579 0 1 1 .576 1.003l-12.813 7.358a.579.579 0 0 1-.288.077"/><path d="M33.154 27.543a.56.56 0 0 1-.15-.02l-3.47-.938.937-3.471a.58.58 0 0 1 1.117.303l-.637 2.353 2.354.636a.579.579 0 0 1-.15 1.137M22.974 33.389a.578.578 0 0 1-.559-.729l.637-2.354-2.354-.637A.578.578 0 1 1 21 28.553l3.47.938-.938 3.47a.579.579 0 0 1-.558.428M33.39 32.325a.577.577 0 0 1-.29-.078l-12.778-7.419a.58.58 0 0 1 .581-1l12.778 7.418a.578.578 0 0 1-.29 1.08"/><path d="M20.854 27.514a.58.58 0 0 1-.148-1.138l2.356-.625-.625-2.357a.578.578 0 1 1 1.118-.297l.922 3.475-3.475.922a.538.538 0 0 1-.148.02M31.007 33.407a.58.58 0 0 1-.56-.43l-.92-3.474L33 28.581a.577.577 0 1 1 .297 1.118l-2.357.625.626 2.356a.577.577 0 0 1-.56.727M26.984 36.004a.579.579 0 0 1-.579-.58l.035-14.775a.58.58 0 0 1 1.157.003l-.034 14.775a.58.58 0 0 1-.579.577"/><path d="M27.008 25.118l-2.536-2.548a.58.58 0 0 1 .82-.816l1.72 1.728 1.728-1.719a.577.577 0 1 1 .816.82l-2.548 2.535zM29.12 34.491a.576.576 0 0 1-.41-.17l-1.719-1.729-1.729 1.72a.578.578 0 1 1-.816-.82l2.55-2.536 2.534 2.548a.58.58 0 0 1-.41.987M27.629 42.56v-2.43H26.37v2.43H12.965v1.259h28.07V42.56z"/></g></svg>