<svg width="54" height="54" viewBox="0 0 54 54" xmlns="http://www.w3.org/2000/svg"><g fill="#000" fill-rule="evenodd"><path d="M41.534 22.086l-1.25 1.602a.554.554 0 0 1-.442.21.55.55 0 0 1-.339-.114l-10.98-8.572a2.385 2.385 0 0 0-1.462-.502 2.39 2.39 0 0 0-1.464.504l-10.95 8.57a.55.55 0 0 1-.339.115.556.556 0 0 1-.44-.211l-1.252-1.602a.564.564 0 0 1 .097-.781l13.756-10.76a.957.957 0 0 1 1.184 0l13.784 10.76a.563.563 0 0 1 .097.78zm-3.608 14.593a.63.63 0 0 1-.62.622h-20.49a.63.63 0 0 1-.622-.622v-12.51l10.178-7.964a1.115 1.115 0 0 1 1.376-.001l10.178 7.945v12.53zm-4.525-25.872c0-.377.318-.696.696-.696h1.875c.377 0 .696.319.696.696v5.18l-3.267-2.55v-2.63zm8.811 9.508l-4.286-3.346v-6.162a1.96 1.96 0 0 0-1.954-1.954h-1.875a1.96 1.96 0 0 0-1.955 1.954v1.647l-3.715-2.9a2.218 2.218 0 0 0-2.733 0l-13.756 10.76a1.818 1.818 0 0 0-.313 2.546l1.25 1.602c.356.457.892.696 1.433.696.213 0 .424-.046.628-.121v11.642c0 1.034.846 1.879 1.88 1.879h20.49a1.884 1.884 0 0 0 1.878-1.88V25.022c.213.084.434.137.658.137.541 0 1.077-.24 1.433-.696l1.25-1.602a1.818 1.818 0 0 0-.313-2.545z"/><path d="M27.075 29.883a1.76 1.76 0 0 1-1.759-1.758c0-.97.79-1.759 1.76-1.759a1.76 1.76 0 0 1 1.757 1.759 1.76 1.76 0 0 1-1.758 1.758m0-4.774a3.016 3.016 0 1 0 0 6.033 3.016 3.016 0 0 0 0-6.033M22.944 28.114a.63.63 0 0 0-.63-.63h-2.718a.63.63 0 0 0 0 1.259h2.719a.63.63 0 0 0 .629-.63M23.272 25.196a.627.627 0 0 0 .89 0 .63.63 0 0 0 0-.89l-1.923-1.922a.63.63 0 0 0-.89 0 .63.63 0 0 0 0 .89l1.923 1.922zM27.085 23.993a.63.63 0 0 0 .63-.629v-2.719a.63.63 0 0 0-1.259 0v2.72a.63.63 0 0 0 .63.628M30.449 25.395a.631.631 0 0 0 .445-.184l1.922-1.922a.629.629 0 1 0-.89-.89l-1.922 1.922a.63.63 0 0 0 .445 1.074M34.554 27.506h-2.719a.63.63 0 0 0 0 1.259h2.72a.63.63 0 0 0 0-1.259M30.878 31.053a.63.63 0 0 0-.89 0 .63.63 0 0 0 0 .89l1.923 1.922a.625.625 0 0 0 .89 0 .629.629 0 0 0 0-.89l-1.923-1.922zM27.064 32.256a.63.63 0 0 0-.629.629v2.719a.63.63 0 0 0 1.258 0v-2.719a.63.63 0 0 0-.629-.629M23.257 31.038l-1.922 1.922a.629.629 0 1 0 .889.89l1.923-1.922a.63.63 0 0 0 0-.89.63.63 0 0 0-.89 0M27.629 42.56v-2.43H26.37v2.43H12.965v1.259h28.07V42.56z"/></g></svg>