<svg width="54" height="54" viewBox="0 0 54 54" xmlns="http://www.w3.org/2000/svg"><g fill="#000" fill-rule="evenodd"><path d="M30.905 21.022a8.692 8.692 0 0 1-3.905.93c-4.833 0-8.766-3.932-8.766-8.765 0-4.834 3.933-8.766 8.766-8.766s8.765 3.932 8.765 8.766c0 1.92-.629 3.693-1.68 5.139.33.264.65.54.947.838a9.966 9.966 0 0 0 1.991-5.977C37.023 7.65 32.535 3.163 27 3.163c-5.536 0-10.024 4.487-10.024 10.024 0 5.535 4.488 10.023 10.024 10.023a9.966 9.966 0 0 0 4.996-1.343 7.462 7.462 0 0 0-1.09-.845M19.893 25.37a7.246 7.246 0 0 0-.219 1.34 8.765 8.765 0 0 1 3.871 7.268c0 4.833-3.933 8.766-8.766 8.766s-8.765-3.933-8.765-8.766 3.932-8.765 8.765-8.765c.331 0 .657.022.98.058.073-.417.165-.828.283-1.228a10.107 10.107 0 0 0-1.263-.088c-5.535 0-10.023 4.488-10.023 10.023 0 5.537 4.488 10.024 10.023 10.024 5.536 0 10.024-4.487 10.024-10.024 0-3.665-1.974-6.86-4.91-8.609M39.247 23.956c-5.536 0-10.023 4.487-10.023 10.023 0 .092.011.182.014.273a7.34 7.34 0 0 0 1.257-.53c.137-4.713 4.005-8.508 8.752-8.508 4.834 0 8.766 3.932 8.766 8.765s-3.932 8.766-8.766 8.766c-3.468 0-6.463-2.031-7.884-4.96-.388.162-.786.302-1.195.42 1.596 3.42 5.056 5.797 9.08 5.797 5.535 0 10.022-4.487 10.022-10.023s-4.487-10.023-10.023-10.023"/><path d="M35.752 27.513c-.141 4.71-4.008 8.501-8.752 8.501a8.99 8.99 0 0 1-.976-.057c-.073.417-.169.827-.287 1.227.415.053.834.088 1.263.088 5.536 0 10.023-4.487 10.023-10.023 0-.09-.01-.177-.013-.267-.438.14-.86.315-1.258.531M23.09 19.416a8.699 8.699 0 0 1 3.91-.932c3.47 0 6.465 2.031 7.885 4.963a11.13 11.13 0 0 1 1.196-.419c-1.594-3.424-5.056-5.802-9.08-5.802a9.968 9.968 0 0 0-5.007 1.348c.338.314.703.595 1.095.842M22.106 34.518a8.763 8.763 0 0 1-3.872-7.269c0-1.915.624-3.683 1.671-5.127-.33-.262-.65-.538-.949-.835a9.967 9.967 0 0 0-1.98 5.962c0 3.666 1.975 6.864 4.913 8.611.115-.432.183-.882.217-1.342"/></g></svg>