<svg width="54" height="54" viewBox="0 0 54 54" xmlns="http://www.w3.org/2000/svg"><path d="M30.81 9.203a.577.577 0 0 0-.244.054c-5.276 2.437-7.552 4.337-10.45 10.803-1.14-1.934-1.428-2.029-1.59-2.083a.578.578 0 0 0-.679.251c-.063.105-1.549 2.6-2.736 6.112-1.106 3.271-2.133 8.062-.752 12.302 1.132 3.472 3.674 6.066 7.557 7.71a.58.58 0 0 0 .643-.132.58.58 0 0 0 .106-.649c-.008-.016-.776-1.668-.946-3.833-.223-2.839.637-5.189 2.557-6.987 3.56-3.335 4.032-4.948 3.84-6.74 3.382 4.557 4.455 9.27 1.108 17.591a.577.577 0 0 0 .716.767c5.48-1.78 11.541-4.87 9.744-13.032-.507-2.303-2.055-4.496-3.694-6.819-2.798-3.963-5.969-8.455-4.616-14.612a.58.58 0 0 0-.565-.703m-.895 1.758c-.776 6.032 2.434 10.58 5.048 14.283 1.564 2.215 3.041 4.308 3.494 6.363.836 3.8.546 8.051-7.538 11.088 2.585-7.149 2.035-12.277-1.79-17.434l-2.315-3.119c-.122-.164-.382-.062-.36.141l.413 3.861c.13 1.223-.039 2.494-3.45 5.688-2.212 2.073-3.206 4.766-2.95 8.004.08 1.018.28 1.934.484 2.655-2.716-1.485-4.528-3.578-5.394-6.238-1.275-3.913-.298-8.419.746-11.51a35.114 35.114 0 0 1 2.141-4.997c.154.233.347.542.59.953l1.001 1.697a.24.24 0 0 0 .424-.024l.806-1.798c2.522-5.627 4.43-7.527 8.65-9.613" fill="#000" fill-rule="evenodd"/></svg>