<svg width="54" height="54" viewBox="0 0 54 54" xmlns="http://www.w3.org/2000/svg"><path d="M25.685 37.111l-1.946 1.813a.342.342 0 0 1-.236.091.345.345 0 0 1-.255-.109l-.516-.553a.346.346 0 0 1-.09-.249.345.345 0 0 1 .107-.243l1.946-1.812a.34.34 0 0 1 .236-.092c.058 0 .167.014.255.109l.516.554a.351.351 0 0 1-.017.491m-4.895.158a.117.117 0 0 1-.092-.042l-.58-.726a.12.12 0 0 1 .018-.163l2.441-1.949a.102.102 0 0 1 .07-.024c.021 0 .063.005.092.042l.58.726a.11.11 0 0 1 .023.085.111.111 0 0 1-.04.078l-2.442 1.949a.103.103 0 0 1-.07.024m-2.072-2.489a.256.256 0 0 1-.2-.094l-.409-.51a.248.248 0 0 1-.05-.186.247.247 0 0 1 .09-.171l2.185-1.745a.257.257 0 0 1 .357.04l.408.51a.25.25 0 0 1 .051.187.247.247 0 0 1-.09.17l-2.186 1.745a.245.245 0 0 1-.156.054m-2.494-3.189l2.456-1.961c.005-.004.014-.012.035-.012.012 0 .034.003.048.021l.651.814c.02.023.014.065-.01.083l-2.49 1.973c-.013 0-.035-.002-.049-.02l-.65-.815c-.019-.023-.014-.064.01-.083m28.924-4.298c-3.12.294-5.59 1.171-7.728 2.731-1.426-1.491-3.997-4.157-5.084-5.135-1.87-1.686-3.276-2.659-4.419-3.063-.234-.083-.584-.172-.915.008-.363.198-.45.565-.528.888a3.913 3.913 0 0 1-.218.696c-.306.703-1.619 2.734-2.937 2.665-.603-.028-1.059-.222-1.322-.561-.214-.278-.238-.578-.218-.674.047-.161.411-.613.652-.913.46-.572.893-1.112 1.01-1.615.133-.576 1.642-2.49 3.657-2.81.024-.003.043-.018.066-.024.63-.044 1.117-.1 1.39-.161 1.756-.398 1.791-.405 3.686.542 1.031.468 1.98.651 2.833.651 3.138 0 4.994-2.489 5.018-2.52a.63.63 0 0 0-1.018-.741c-.096.133-2.409 3.234-6.293 1.475-2.104-1.053-2.44-1.099-4.503-.635-.338.077-.736.132-1.158.179a.617.617 0 0 0-.219-.008c-.07.011-.135.038-.206.052-4.477.377-12.316-.618-12.684-1.564a.64.64 0 0 0-.807-.374.619.619 0 0 0-.382.784c.647 1.879 6.791 2.405 11.27 2.41-1.04.834-1.735 1.848-1.876 2.461-.052.222-.48.757-.765 1.11-.434.54-.808 1.006-.9 1.432-.115.535.063 1.207.451 1.711.346.448 1.018.993 2.261 1.05 2.507.119 4.132-3.384 4.147-3.42.145-.332.22-.619.273-.838.948.388 2.198 1.287 3.813 2.741 1.3 1.171 4.954 5.003 5.818 5.913-.032.294-.128.506-.287.631-.332.263-.93.196-1.134.149a.634.634 0 0 0-.194-.008l-4.748-5.211a.628.628 0 1 0-.93.848l5.081 5.576c-.05.364-.218.501-.279.552-.376.31-1.082.306-1.47.264l-5.89-6.391a.628.628 0 1 0-.925.853l5.841 6.338a.77.77 0 0 1-.252.394c-.47.401-1.394.445-1.916.419l-4.647-5.511a.628.628 0 1 0-.962.81l4.634 5.495c-.038.112-.098.151-.132.174-.384.251-1.356.089-2.063-.134.035-.435-.1-.88-.418-1.222l-.516-.554a1.603 1.603 0 0 0-1.176-.509c-.139 0-.275.04-.41.076a1.33 1.33 0 0 0-.219-.427l-.58-.726a1.372 1.372 0 0 0-1.076-.515c-.097 0-.192.027-.288.048.112-.444.03-.933-.277-1.316l-.407-.51a1.5 1.5 0 0 0-1.043-.551c.085-.378.025-.786-.235-1.11l-.65-.814a1.315 1.315 0 0 0-1.85-.207l-1.122.895a.597.597 0 0 0-.2-.203c-2.277-1.371-5.023-1.849-8.16-1.418a.629.629 0 0 0 .171 1.246c2.778-.378 5.195.018 7.193 1.171l-.339.271a1.32 1.32 0 0 0-.207 1.851l.65.814c.24.3.587.461.944.484-.072.413.02.853.3 1.204l.408.509a1.51 1.51 0 0 0 1.184.567c.071 0 .141-.025.212-.035-.14.426-.095.907.205 1.283l.58.726c.27.339.671.515 1.075.515.211 0 .417-.067.612-.166.047.308.182.605.41.849l.516.554a1.6 1.6 0 0 0 1.175.509 1.6 1.6 0 0 0 1.094-.429l1.857-1.731c.396.141 1.21.391 2.018.391.474 0 .943-.087 1.32-.332.214-.141.452-.385.6-.759l.072.002c.685 0 1.756-.113 2.476-.724.281-.239.474-.539.595-.879.066.003.13.007.203.007.567 0 1.314-.107 1.88-.571.301-.247.636-.702.721-1.43.44-.002.997-.095 1.461-.458.358-.28.785-.831.785-1.862a.633.633 0 0 0-.172-.433l-.117-.123c1.92-1.361 4.152-2.132 6.971-2.396a.63.63 0 0 0 .567-.686.637.637 0 0 0-.685-.567" fill="#000" fill-rule="evenodd"/></svg>