<svg width="54" height="54" viewBox="0 0 54 54" xmlns="http://www.w3.org/2000/svg"><path d="M15.598 31.555l.158-.185 17.779-20.742a.613.613 0 0 1 .863-.067l6.296 5.397c.256.22.286.606.066.862L22.964 37.583l-.141.165-7.225-6.193zm.158 7.158l.157-4.689 4.453 3.817-4.61.872zM41.78 14.691l-6.297-5.397a2.28 2.28 0 0 0-3.216.247L14.33 30.47l.023.293-.292 8.688c-.011.332.133.625.36.82.228.196.54.292.866.231l8.803-1.667 17.938-20.927a2.282 2.282 0 0 0-.247-3.216z" fill="#000" fill-rule="evenodd"/></svg>