<svg width="54" height="54" viewBox="0 0 54 54" xmlns="http://www.w3.org/2000/svg"><g fill="#000" fill-rule="evenodd"><path d="M34.033 19.542c-6.479 0-11.75-1.89-11.75-4.211 0-2.322 5.271-4.211 11.75-4.211 6.48 0 11.75 1.889 11.75 4.21-.034 2.319-5.306 4.212-11.75 4.212"/><path d="M34.033 10.49c-6.003 0-12.379 1.676-12.379 4.84 0 3.119 6.376 4.84 12.38 4.84 5.956 0 12.332-1.721 12.378-4.84 0-3.117-6.375-4.84-12.379-4.84m0 1.259c6.365 0 11.121 1.89 11.121 3.563-.025 1.7-4.787 3.6-11.12 3.6-6.366 0-11.122-1.89-11.122-3.581 0-1.694 4.567-3.582 11.121-3.582"/><path d="M34.033 24.36a34.19 34.19 0 0 1-3.816-.234c-.372-.046-.605-.372-.559-.745.047-.372.373-.605.745-.558 1.164.14 2.42.233 3.63.233 6.33 0 11.076-1.862 11.076-3.584v-4.235c0-.372.28-.65.652-.65s.651.278.651.65v4.235c-.046 3.165-6.422 4.887-12.379 4.887"/><path d="M34.033 28.594c-.559 0-1.07 0-1.583-.046a.614.614 0 0 1-.605-.7c0-.371.327-.604.7-.604.511.047 1.023.047 1.534.047 6.33 0 11.077-1.862 11.077-3.583v-.838c0-.372-.233-.791-.745-1.164a.664.664 0 0 1-.093-.93.664.664 0 0 1 .931-.094c1.023.838 1.21 1.629 1.21 2.188v.838c-.093 3.164-6.469 4.886-12.426 4.886"/><path d="M34.033 32.782h-.93a.666.666 0 0 1-.653-.65c0-.374.28-.653.652-.653h.885c6.328 0 11.075-1.862 11.075-3.583v-.838c0-.373-.232-.79-.744-1.164-.279-.232-.093-.468.14-.748.233-.279.42-.508.698-.276 1.023.838 1.21 1.63 1.21 2.188v.838c0 3.211-6.376 4.886-12.333 4.886"/><path d="M34.033 37.017c-.512 0-.977 0-1.443-.046a.614.614 0 0 1-.605-.699c0-.372.28-.605.698-.605.466 0 .931.047 1.396.047 6.33 0 11.077-1.862 11.077-3.583v-.838c0-.372-.233-.79-.745-1.164-.279-.232-.103-.453.131-.733.232-.279.428-.523.707-.29.791.651 1.21 1.396 1.21 2.187v.838c-.093 3.164-6.469 4.886-12.426 4.886"/><path d="M34.033 41.206c-1.256 0-2.466-.047-3.63-.187a.624.624 0 0 1-.558-.698.624.624 0 0 1 .698-.558c1.116.14 2.326.186 3.49.186 6.33 0 11.076-1.86 11.076-3.583v-.838c0-.372-.232-.79-.745-1.163-.278-.233-.097-.523.136-.802.232-.279.423-.455.702-.222 1.024.837 1.21 1.63 1.21 2.187v.838c-.046 3.164-6.422 4.84-12.379 4.84M18.955 21.008c-6.097 0-11.076 4.98-11.076 11.123 0 6.142 4.98 11.17 11.076 11.17s11.076-4.98 11.076-11.17c0-6.143-4.98-11.122-11.076-11.122m0 23.594c-6.84 0-12.379-5.584-12.379-12.425 0-6.841 5.538-12.426 12.38-12.426 6.84 0 12.378 5.585 12.378 12.426 0 6.84-5.538 12.425-12.379 12.425M22.306 18.449a.635.635 0 0 1-.651-.652v-2.513c0-.372.278-.651.65-.651.373 0 .652.279.652.65v2.514a.636.636 0 0 1-.651.652"/><path d="M13.813 26.06c0-.16.144-.303.304-.303h.496c.16 0 .304.144.304.304v6.93l2.722-2.24c.128-.112.256-.192.384-.192h.864c.272 0 .256.304.144.4l-3.041 2.433 3.537 3.169c.128.112.113.4-.16.4h-.88a.54.54 0 0 1-.32-.128l-3.25-3.09v2.915a.315.315 0 0 1-.304.303h-.496a.315.315 0 0 1-.304-.303V26.06zM20.965 30.863c0-.16.145-.305.304-.305h.304c.128 0 .24.08.272.224l.129.465s.592-.849 1.92-.849c.48 0 1.28.08 1.12.529l-.191.544c-.08.207-.224.207-.384.143a1.656 1.656 0 0 0-.624-.127c-1.217 0-1.746.897-1.746.897v4.273a.315.315 0 0 1-.303.305h-.497a.316.316 0 0 1-.304-.305v-5.794z"/></g></svg>