<svg width="73" height="73" viewBox="0 0 73 73" xmlns="http://www.w3.org/2000/svg"><title>icon-play</title><g><ellipse class="icon-play-disc" fill="transparent" cx="36.285" cy="36.274" rx="36.285" ry="36.274"/><path class="icon-play-circle" d="M36.285 70.548c18.936 0 34.285-15.345 34.285-34.274C70.57 17.344 55.22 2 36.285 2 17.35 2 2 17.345 2 36.274c0 18.93 15.35 34.274 34.285 34.274zm0 2C16.245 72.548 0 56.308 0 36.274 0 16.24 16.245 0 36.285 0 56.325 0 72.57 16.24 72.57 36.274c0 20.034-16.245 36.274-36.285 36.274z" fill="" fill-rule="nonzero"/><rect class="icon-play-square" fill="transparent" x="20" y="20" width="33" height="33" rx="3"/><path class="icon-play-triangle" d="M53.254 34.44l-23.45-15.107c-1.39-.75-2.985-.67-2.985 2.018V51.1c0 2.46 1.71 2.846 2.984 2.018l23.45-15.108c.966-.986.966-2.583 0-3.57" fill=""/></g></svg>