<svg width="54" height="54" viewBox="0 0 54 54" xmlns="http://www.w3.org/2000/svg"><g fill="#000" fill-rule="evenodd"><path d="M27 6.657C15.765 6.657 6.658 15.765 6.658 27c0 11.234 9.107 20.343 20.342 20.343 11.234 0 20.343-9.109 20.343-20.343 0-11.235-9.109-20.343-20.343-20.343m0 1.258c10.523 0 19.085 8.561 19.085 19.085 0 10.523-8.562 19.085-19.085 19.085-10.523 0-19.085-8.562-19.085-19.085C7.915 16.476 16.477 7.915 27 7.915"/><path d="M27 27.63H16.864a.63.63 0 0 1 0-1.259h9.507V12.653a.63.63 0 0 1 1.257 0V27a.629.629 0 0 1-.628.63M36.884 37.776l-.889-.89.89-.889.888.89zM17.105 17.997l-.889-.89.889-.888.889.889zM26.364 41.607h1.257V40.35h-1.257zM16.217 36.877l.889-.889.889.89-.89.888zM35.996 17.098l.89-.89.888.89-.889.889zM12.386 27.614h1.257v-1.257h-1.257zM40.358 27.614h1.257v-1.257h-1.257z"/></g></svg>