<svg width="54" height="54" viewBox="0 0 54 54" xmlns="http://www.w3.org/2000/svg"><g fill="#000" fill-rule="evenodd"><path d="M18.635 14.701h.954v-.954h-.954v.954zm1.634-2.212h-2.313a.579.579 0 0 0-.579.579v2.313c0 .319.259.578.579.578h2.313a.58.58 0 0 0 .579-.578v-2.313a.58.58 0 0 0-.579-.579zM22.106 15.33h2.212v-2.212h-2.212v2.212zm-.05 0l.05-2.262 2.263.05-.05 2.212h-2.263z"/><path d="M22.735 14.701h.954v-.954h-.954v.954zm1.634-2.212h-2.313a.579.579 0 0 0-.579.579v2.313c0 .319.259.578.579.578h2.313a.578.578 0 0 0 .578-.578v-2.313a.578.578 0 0 0-.578-.579zM26.206 15.33h2.212v-2.212h-2.212v2.212zm-.05 0l.05-2.262 2.263.05-.05 2.212h-2.263z"/><path d="M26.835 14.701h.954v-.954h-.954v.954zm1.634-2.212h-2.313a.579.579 0 0 0-.579.579v2.313c0 .319.259.578.579.578h2.313a.578.578 0 0 0 .578-.578v-2.313a.578.578 0 0 0-.578-.579zM19.05 21.09l4.979-1.209-.504 5.098-.074.861.509-5.941-4.9 1.238 1.762 8.611 1.99-1.04-2.05 1.071-1.711-8.689zm4.748 8.076l-.093-.925.603 6.009 3.039-9.312.088-.02-3.153 9.415-.484-5.166z"/><path d="M23.258 20.725l-.36 4.2-.123 1.443a.205.205 0 0 0 .25.217l1.41-.327 1.969-.455-1.768 5.415-.212-2.114-.155-1.55a.206.206 0 0 0-.3-.161l-1.38.722-1.318.689-1.473-7.204 3.46-.875zm.759-1.471a.57.57 0 0 0-.142.018L18.86 20.54a.579.579 0 0 0-.425.677l1.785 8.723a.576.576 0 0 0 .835.397l2.117-1.108.534 5.32a.577.577 0 0 0 .576.522.58.58 0 0 0 .55-.4l3.14-9.623a.578.578 0 0 0-.68-.742l-3.14.727.44-5.151a.579.579 0 0 0-.575-.628zM37.247 14.215l-2.042 2.042 2.042-2.042zm-1.113 4.447l-1.692-1.713.317-.246-.282.282 1.677 1.677h-.02zm4.678-.155l-1.16-1.16v-2.183l-1.677-1.677-.108.107.144-.143 1.656 1.728-.015 2.167 1.196 1.197-.336.264.3-.3zm.631 4.278c.073-1.2-.157-2.432-.54-2.848l-.727-.793-.714.715-.94-1.013-.185-.184H37.06h1.277l1.16 1.16 1.014-1.013.766.813-.69-.03.317.347c.382.416.613 1.648.54 2.847zm-.352 4.37l-.208 2.566.208-2.567z"/><path d="M37.247 15.105l.728-.728 1.047 1.048v2.182l.37.37.531.53-.426.426-.53-.532-.369-.368h-2.182l-1.049-1.048.656-.656 1.224-1.224zm-1.84-3.38a.578.578 0 0 0-.409.987l1.431 1.432-1.296 1.295-1.432-1.43a.577.577 0 0 0-.818 0 .578.578 0 0 0 0 .817l1.432 1.432-.318.318a.578.578 0 0 0 0 .818l1.728 1.728a.578.578 0 0 0 .41.17h1.941l1.012 1.011a.577.577 0 0 0 .818 0l.231-.23.02-.019.283.31c.183.198.47 1.236.367 2.511l-.55 6.787c-.012.15-.02.31-.025.476.453.282.878.604 1.273.961a10.67 10.67 0 0 1 .006-1.335l.55-6.788c.096-1.2-.08-2.794-.693-3.463l-.317-.346-.102.093.006-.006.338-.337a.581.581 0 0 0 0-.819l-1.013-1.012v-1.942a.574.574 0 0 0-.169-.409l-1.727-1.728a.582.582 0 0 0-.819 0l-.318.32-1.432-1.433a.576.576 0 0 0-.409-.169zM35.908 27.64c-.001 0-.001 0 0 0zm.007.014c-.001 0-.001 0 0 0zM15.634 43.346V11.132v32.213h12.119-12.12z"/><path d="M29.782 9.496h-13.14c-.902 0-1.637.734-1.637 1.636v31.686h-2.038v1.157H29.11a9.017 9.017 0 0 1-1.029-1.26H16.263V11.133a.38.38 0 0 1 .38-.378h13.14a.38.38 0 0 1 .378.378v19.432a8.922 8.922 0 0 1 1.258-.79v-2.71h2.587c.393 0 .763.155 1.042.435.28.28.434.65.433 1.043v.238l.027-.001c.418 0 .827.039 1.23.094l.001-.328a2.718 2.718 0 0 0-.8-1.935 2.712 2.712 0 0 0-1.933-.803H31.42V11.132c0-.902-.735-1.636-1.637-1.636"/><path d="M35.508 28.779a8.948 8.948 0 1 0 0 17.896 8.948 8.948 0 0 0 0-17.896m0 1.258c4.24 0 7.69 3.45 7.69 7.69s-3.45 7.69-7.69 7.69-7.69-3.45-7.69-7.69 3.45-7.69 7.69-7.69"/><path d="M35.614 38.87a.629.629 0 0 1-.63-.63v-.3c0-1.03.64-1.492 1.203-1.9.557-.402.898-.679.898-1.279 0-.44-.29-.954-1.107-.954-.927 0-1.385.494-1.66.79l-.526-.358-.46-.43.066-.07c.329-.355 1.104-1.19 2.58-1.19 1.553 0 2.365 1.112 2.365 2.212 0 1.273-.854 1.89-1.418 2.3-.553.398-.682.527-.682.88v.3a.629.629 0 0 1-.63.628M36.574 41.946a.877.877 0 1 1-1.754-.001.877.877 0 0 1 1.754 0"/></g></svg>