<svg width="54" height="54" viewBox="0 0 54 54" xmlns="http://www.w3.org/2000/svg"><g fill="#000" fill-rule="evenodd"><path d="M14.655 21.855a.725.725 0 0 0 .728-.72.725.725 0 0 0-.728-.72H9.1c1.634-3.402 7-12.32 17.95-12.32s17.592 8.799 18.3 13.677h1.47c-.718-5.676-8.137-15.114-19.77-15.114-11.634 0-16.955 8.966-18.939 12.506V13.94a.724.724 0 0 0-.727-.72.725.725 0 0 0-.727.72v7.194c0 .698.727.72.727.72h7.271zM39.705 32.159a.726.726 0 0 0-.728.72c0 .395.327.719.728.719h5.555c-1.634 3.403-7 12.319-17.95 12.319S9.718 37.12 9.01 32.242H7.54c.718 5.675 8.136 15.114 19.77 15.114 11.633 0 16.955-8.966 18.94-12.506v5.223c0 .396.324.719.726.719a.724.724 0 0 0 .727-.72V32.88c0-.7-.727-.72-.727-.72h-7.27z"/><path d="M17.412 32.47c1.723-1.85 3.425-3.72 5.148-5.568 1.43-1.555 2.122-2.815 2.122-3.803 0-1.197-.777-2.668-2.94-2.668-1.304 0-2.334.882-2.985 1.576a.383.383 0 0 1-.568 0l-.42-.4c-.126-.147-.168-.378-.02-.546 0 0 1.491-2.06 3.992-2.06 3.004 0 4.538 1.913 4.538 4.056 0 1.849-1.177 3.215-2.626 4.77-1.345 1.429-2.69 2.878-4.034 4.307h6.177c.21 0 .4.189.4.399v.567c0 .21-.19.4-.4.4h-7.985a.399.399 0 0 1-.399-.4v-.63zM35.186 28.961V21.65l-5.925 7.312h5.925zm-7.69.904v-.778l7.963-9.98c.063-.063.126-.126.315-.126h.421c.21 0 .399.168.399.4l.021 9.601h1.701c.231 0 .4.168.4.378v.463a.4.4 0 0 1-.4.4h-1.701V33.1c0 .211-.19.4-.4.4h-.714a.413.413 0 0 1-.399-.4v-2.836h-7.207a.399.399 0 0 1-.399-.399z"/></g></svg>