<svg width="54" height="54" viewBox="0 0 54 54" xmlns="http://www.w3.org/2000/svg"><path d="M18.3 37.312c3.279-3.52 6.519-7.079 9.798-10.599 2.72-2.959 4.04-5.359 4.04-7.238 0-2.28-1.48-5.08-5.6-5.08-2.48 0-4.44 1.68-5.678 3-.32.32-.76.32-1.08 0l-.8-.76c-.24-.28-.32-.719-.04-1.039 0 0 2.839-3.92 7.599-3.92 5.719 0 8.638 3.64 8.638 7.72 0 3.518-2.24 6.118-5 9.077-2.56 2.72-5.118 5.48-7.678 8.2h11.759c.399 0 .759.36.759.76v1.08c0 .398-.36.758-.76.758H19.06a.76.76 0 0 1-.76-.759v-1.2z" fill="#000" fill-rule="evenodd"/></svg>