<svg width="54" height="54" viewBox="0 0 54 54" xmlns="http://www.w3.org/2000/svg"><g fill="" fill-rule="evenodd"><path d="M27.425 4.456c-12.196 0-22.119 9.923-22.119 22.119s9.923 22.119 22.12 22.119c12.195 0 22.118-9.923 22.118-22.12 0-12.195-9.923-22.118-22.119-22.118m0 45.496c-12.89 0-23.377-10.487-23.377-23.377 0-12.89 10.487-23.377 23.377-23.377 12.89 0 23.376 10.487 23.376 23.377 0 12.89-10.486 23.377-23.376 23.377"/><path d="M17.813 28.481l5.949 5.991c.502.511 1.504.525 2.019.04l.949-.902 2.046-1.952 9.948-9.424c.514-.484.528-1.48.026-1.979l-1.151-1.17c-.502-.5-1.505-.5-2.006-.015l-9.73 9.653c-.502.498-1.505.485-1.992-.013l-3.24-3.245c-.487-.51-1.463-.498-1.951.027l-.894.956c-.488.512-.461 1.535.027 2.033"/></g></svg>