<svg width="54" height="54" viewBox="0 0 54 54" xmlns="http://www.w3.org/2000/svg"><g fill="#000" fill-rule="evenodd"><path d="M37.161 38.955L27.156 28.95l.707-.707 10.005 10.006zM39.532 37.008L29.148 26.623l.707-.707L40.24 36.301zM34.929 19.208a1.502 1.502 0 0 1-.61.375c.018.028.035.055.05.084.303.565.41 1.187.34 1.784l1.067-1.066 5.218-7.264-.43-.431-5.26 5.262c.134.379 0 .88-.375 1.256"/><path d="M41.79 39.458l-1.085 1.127a3.297 3.297 0 0 1-2.393 1.011 3.3 3.3 0 0 1-2.301-.923L25.123 30.186c-1.197-1.154-1.053-3.36-.175-4.622l.488-.7-.614-.592-4.277-4.12-1.773-1.709-.574-.553-.667.436a3.453 3.453 0 0 1-.438.245l-3.625-3.478 2.192-2.275 3.526 3.394a3.534 3.534 0 0 1-.229.54l-.346.664.54.518.594.57 5.576 5.36.644.621.688-.57a2.804 2.804 0 0 1 1.804-.673c.827 0 1.664.367 2.357 1.035l10.888 10.487a3.298 3.298 0 0 1 1.011 2.33 3.3 3.3 0 0 1-.923 2.364M26.827 22.633c-.056.027-.113.048-.168.078.055-.03.112-.05.168-.078m.69-.256c-.051.013-.102.025-.152.04.05-.015.101-.027.152-.04m.698-.114c-.028.001-.055.004-.083.007.028-.003.055-.006.083-.007m2.488.67c-.025-.016-.052-.026-.077-.04.026.013.052.024.077.04m11.692 11.111L31.508 23.557l.558.537 1.322-1.323a2.36 2.36 0 0 0 .41-2.799 2.287 2.287 0 0 0-.41-.562c-.23-.23-.281-.583-.173-.932.066-.215.191-.427.374-.61.376-.377.878-.509 1.256-.374l5.261-5.262-.43-.43-7.264 5.22-2.393 2.394-.088.095a2.36 2.36 0 0 0-.139 2.982c.005.002.01.006.015.007a4.007 4.007 0 0 0-.983-.219c.039.003.078-.002.118.003a3.011 3.011 0 0 1-.238-1.554l-1.164 1.165a1.225 1.225 0 0 0-.216.026c-.095.022-.863.198-2.001.558l.308.296-5.787-5.562c.225-.43.382-.884.435-1.335l-4.645-4.474-3.549 3.684-.032.033 4.789 4.595a3.99 3.99 0 0 0 1.236-.553l4.491 4.328c-2.272.946-4.917 2.355-6.904 4.343-4.21 4.21-5.055 8.24-5.088 8.411a1.292 1.292 0 0 0 1.009 1.52 1.299 1.299 0 0 0 1.527-1.008c.007-.033.763-3.473 4.383-7.092 1.728-1.729 4.122-2.979 6.179-3.825-.707 1.665-.555 3.804.755 5.066l1.137 1.095c-.676 1.191-1.482 2.348-2.435 3.301-3.62 3.62-7.058 4.374-7.093 4.382a1.294 1.294 0 1 0 .515 2.538c.169-.035 4.199-.879 8.409-5.09.976-.975 1.808-2.112 2.52-3.285l7.834 7.546a4.307 4.307 0 0 0 2.995 1.203 4.31 4.31 0 0 0 3.113-1.318l1.086-1.127a4.332 4.332 0 0 0-.116-6.107"/></g></svg>