<svg width="54" height="54" viewBox="0 0 54 54" xmlns="http://www.w3.org/2000/svg"><path d="M40.114 40.316a.27.27 0 0 1-.269.269h-7.948a.27.27 0 0 1-.269-.27v-7.948c0-.148.121-.268.27-.268h7.947c.15 0 .27.12.27.268v7.949zm-17.24-8.217c.148 0 .268.12.268.268v7.949c0 .148-.12.269-.268.269h-7.948a.27.27 0 0 1-.269-.27v-7.948c0-.148.12-.268.27-.268h7.947zm-.642-9.911v-6.832c0-.411-.268-.358-.536-.358-.269 0-.375.138-.503.213-.128.074-.342.22-.342.22l-.383-.486 6.658-5.186 1.82 1.417a1.253 1.253 0 0 0 1.325.138c.432-.211.706-.65.706-1.13v-.561h.382v2.818c0 .388.18.754.485.993l.335.26 1.602 1.25-.412.53s-.149-.102-.359-.261c-.168-.126-.152-.215-.457-.215-.303 0-.535-.053-.535.358l.002 6.832h-9.788zm17.633 8.753h-3.608v-2.856h4.628v-1.158H27.771v-3.481h4.566a.943.943 0 0 0 .942-.942l-.003-5.926a.939.939 0 0 0 1.066-.304l.626-.805a.937.937 0 0 0 .191-.695.932.932 0 0 0-.356-.627l-1.85-1.444-.336-.262V9.307a.944.944 0 0 0-.942-.942h-1.014a.944.944 0 0 0-.943.942v.877l-1.9-1.481a1.132 1.132 0 0 0-.692-.22c-.252 0-.504.074-.69.22l-6.99 5.444a.935.935 0 0 0-.355.627.932.932 0 0 0 .19.695l.627.805a.937.937 0 0 0 1.066.304v5.926c0 .52.422.942.942.942h4.698v3.48H12.728v1.159h5.4v2.856h-3.222c-.777 0-1.406.63-1.406 1.406v7.989c0 .776.63 1.406 1.406 1.406h7.988c.776 0 1.406-.63 1.406-1.406v-7.99c0-.775-.63-1.405-1.406-1.405h-3.609v-2.856H35.1v2.856h-3.223c-.777 0-1.406.63-1.406 1.406v7.989c0 .776.63 1.406 1.406 1.406h7.988c.776 0 1.406-.63 1.406-1.406v-7.99c0-.775-.63-1.405-1.406-1.405z" fill="#000" fill-rule="evenodd"/></svg>