<svg width="17" height="17" viewBox="0 0 17 17" xmlns="http://www.w3.org/2000/svg"><path d="M8.89 2.52c-1.496 0-2.112.591-2.563 1.228-.835 1.193-.344 2.872-.34 2.888.132.393-.133.64-.22.721-.078.072-.106.098-.118.223-.006.085.01.117.148.32.157.229.397.575.568 1.205.161.592.28.727.717 1.233l.297.348c.134.158.487.578.321 1.027-.175.48-.724.548-1.418.636l-.302.038c-1.035.143-1.749.489-2.123 1.03-.38.547-.279 1.123-.275 1.146.024.27.058.324.088.537l5.392.011h4.99c.03-.213.064-.277.087-.549.003-.022.106-.598-.275-1.146-.374-.54-1.088-.886-2.123-1.029l-.302-.039c-.694-.088-1.243-.155-1.418-.635-.166-.45.188-.87.322-1.027 0 0 .21-.245.297-.35.438-.505.555-.64.715-1.23.17-.631.41-.976.57-1.207.137-.202.154-.234.146-.319-.005-.048-.005-.048-.163-.152-.315-.194-.253-.535-.215-.65.005-.015.53-1.841-.303-3.03-.11-.158-.234-.192-.61-.272a5.517 5.517 0 0 1-.883-.248c-.543-.208-.77-.458-.923-.623-.029-.03-.069-.075-.084-.086" fill="#000" fill-rule="evenodd"/></svg>