<svg width="54" height="54" viewBox="0 0 54 54" xmlns="http://www.w3.org/2000/svg"><path d="M18.28 35.153l1.08-.92c.44-.32.76-.24 1.08.2.36.44 2.52 2.76 5.958 2.76 3.04 0 5.76-1.84 5.76-5 0-2.72-2.12-5.24-7.08-5.24H22.84c-.44 0-.76-.24-.76-.88v-.96c0-.639.2-.878.84-.878h2.2c4.278 0 6.358-2.2 6.358-4.84 0-3.16-2.4-5.08-5.239-5.08-2.72 0-4.359 1.6-5.239 2.6-.24.28-.64.44-1.04.08l-.96-.76c-.32-.28-.28-.76 0-1.04 0 0 2.88-3.518 7.24-3.518 4.838 0 8.238 2.838 8.238 7.319 0 3.079-2.32 5.479-4.12 6.319v.118c1.88.802 4.8 3.04 4.8 6.48 0 4.36-3.36 7.76-8.879 7.76-4.919 0-7.159-2.562-8.039-3.562-.24-.278-.28-.718.04-.958" fill="#000" fill-rule="evenodd"/></svg>