<svg width="54" height="54" viewBox="0 0 54 54" xmlns="http://www.w3.org/2000/svg"><path d="M43.387 19.186a1.044 1.044 0 0 0-.372-.713l-1.91-1.6a1.033 1.033 0 0 0-1.466.14l-5.937 7.286-5.751-4.82 5.937-7.286a1.057 1.057 0 0 0-.14-1.484l-1.91-1.603a1.03 1.03 0 0 0-1.46.139l-5.94 7.29-2.394-2.005c-.26-.218-.614-.262-.948-.118a1.4 1.4 0 0 0-.52.398c-.67.804-6.574 7.919-7.11 10.299-.261 1.162.289 2.979.925 5.084.612 2.03 1.453 4.81.813 5.595l-3.817 4.777a.8.8 0 0 0 .11 1.113l4.069 3.407c.215.18.425.228.589.228a.83.83 0 0 0 .207-.026c.205-.052.385-.176.55-.38l3.722-4.568c.645-.79 3.492-.513 5.57-.31 2.135.207 3.98.387 5.049-.09 2.204-.982 7.93-8.18 8.569-8.99.155-.19.253-.45.27-.715.023-.348-.1-.662-.336-.86l-2.54-2.13 5.938-7.286c.177-.218.258-.492.233-.772zM31.204 10.21l1.598 1.339-5.81 7.128-1.595-1.34 5.807-7.127zm-.45 28.574c-.773.343-2.633.163-4.43-.012-2.871-.28-5.583-.543-6.646.763l-3.563 4.374-3.514-2.945 3.563-4.374c1.065-1.307.264-3.96-.584-6.767-.535-1.77-1.088-3.6-.901-4.433.392-1.745 4.979-7.525 6.795-9.703l4.729 3.962.158.132 7.35 6.162h.002l1.913 1.603s.002 0 .002.002l3.184 2.666c-1.741 2.2-6.441 7.85-8.056 8.57h-.002zm5.504-12.343L34.66 25.1l5.808-7.127 1.599 1.339-5.81 7.128z" fill="#000" fill-rule="evenodd"/></svg>