<svg width="54" height="54" viewBox="0 0 54 54" xmlns="http://www.w3.org/2000/svg"><path d="M47.505 36.258a4.031 4.031 0 0 1-2.833 1.154c-1.746 0-2.564-.922-3.578-2.063a38.928 38.928 0 0 0-.373-.418v-2.578l4.784-3.917-.797-.942-3.987 3.265v-7.643h-1.252v7.64l-3.987-3.265v.003l-.798.944 4.786 3.915v2.58l-.375.416c-1.012 1.144-1.832 2.065-3.58 2.065a4.027 4.027 0 0 1-2.832-1.154 3.895 3.895 0 0 1-.856-4.334 3.91 3.91 0 0 1 .915-1.302l.268-.255-.1-.355a7.097 7.097 0 0 1-.275-1.99c0-2.029.834-3.864 2.185-5.192a7.494 7.494 0 0 1 5.275-2.15c2.059 0 3.926.822 5.275 2.15a7.258 7.258 0 0 1 1.909 7.18l-.101.354.269.255c.388.366.7.809.914 1.302a3.9 3.9 0 0 1-.856 4.336zm-12.803 6.715H28.54V32.915c0-1.154-.94-2.094-2.095-2.094h-6.65c-1.154 0-2.094.94-2.094 2.094v10.06h-6.163a.765.765 0 0 1-.765-.763V28.133L22.4 19.075c.362-.282 1.077-.282 1.438 0l8.004 6.233a8.41 8.41 0 0 0-.462 2.713A8.564 8.564 0 0 0 31.617 30a5.16 5.16 0 0 0-.94 1.443 5.115 5.115 0 0 0 1.12 5.686 5.255 5.255 0 0 0 1.816 1.166c.265.12.589.234 1.252.309 0 0 .372.033.602.038v3.57a.765.765 0 0 1-.765.763zm-7.491 0h-8.18V32.915c0-.42.343-.764.765-.764h6.649c.422 0 .766.343.766.764v10.06zM8.123 27.543L6.73 25.752a.755.755 0 0 1-.154-.564.755.755 0 0 1 .287-.509L22.4 12.58c.362-.283 1.076-.283 1.438 0l11.034 8.592a8.739 8.739 0 0 0-.937.788c-.583.611-1.17 1.424-1.17 1.424l-.001.003c-.14.212-.252.44-.372.665l-7.737-6.026a2.504 2.504 0 0 0-1.536-.502c-.574 0-1.12.178-1.536.502L9.197 27.674a.786.786 0 0 1-1.074-.133zm22.09-14.67c0-.421.343-.764.764-.764h2.254c.422 0 .765.342.765.764v5.933l-3.783-2.947v-2.986zm19.299 18.569a5.169 5.169 0 0 0-.94-1.442c.064-.262.116-.531.153-.804a8.482 8.482 0 0 0-2.469-7.234 8.753 8.753 0 0 0-6.16-2.511 8.774 8.774 0 0 0-4.023.973l-.747-.582v-6.969c0-1.155-.94-2.094-2.095-2.094h-2.254a2.097 2.097 0 0 0-2.094 2.095v1.95l-4.227-3.293c-.832-.647-2.24-.647-3.072 0L6.048 23.632c-.44.343-.721.837-.791 1.395a2.084 2.084 0 0 0 .425 1.544l1.392 1.788a2.083 2.083 0 0 0 2.369.677V42.21c0 1.153.94 2.093 2.095 2.093h23.164c1.155 0 2.095-.94 2.095-2.093v-3.703c1.16-.272 1.92-.918 2.674-1.726v6.857a.624.624 0 1 0 1.25 0v-6.856c1 1.072 2.007 1.86 3.952 1.86 1.452 0 2.768-.58 3.72-1.516a5.12 5.12 0 0 0 1.119-5.687z" fill="#000" fill-rule="evenodd"/></svg>