<svg width="54" height="54" viewBox="0 0 54 54" xmlns="http://www.w3.org/2000/svg"><g fill="#000" fill-rule="evenodd"><path d="M47.492 42.523a.765.765 0 0 1-.765.765l-15.378-.006a.601.601 0 0 1-.599-.601v-8.187c0-.931-.762-1.693-1.694-1.693h-3.383c-.93 0-1.694.762-1.694 1.693v8.193a.6.6 0 0 1-.599.6H7.97a.766.766 0 0 1-.765-.764V26.39h13.268a.74.74 0 0 0 .54-.233l5.818-6.183a.74.74 0 0 1 1.077 0l5.82 6.183c.14.149.334.233.537.233h13.227v16.132zM7.91 25.133l10.348-11.788a.74.74 0 0 1 .556-.252h17.114c.212 0 .415.092.555.252l10.35 11.788H34.808a.735.735 0 0 1-.538-.233l-6.363-6.76a.74.74 0 0 0-1.077 0L20.47 24.9a.74.74 0 0 1-.539.233H7.91zm40.347-.234L37.053 12.088a.743.743 0 0 0-.557-.252H18.243a.741.741 0 0 0-.555.25L6.418 24.926c-.254.274-.542.557-.542.873v16.725c0 1.156.937 2.094 2.094 2.094h15.615c.912 0 1.653-.74 1.653-1.653v-8.47c0-.24.195-.435.435-.435h3.383c.24 0 .436.196.436.435v8.465c0 .912.74 1.652 1.652 1.652l15.583.006a2.093 2.093 0 0 0 2.095-2.093V25.798c0-.326-.308-.617-.566-.9z"/><path d="M17.448 32.59h-3.741a1.7 1.7 0 0 0-1.694 1.694v3.741c0 .931.763 1.693 1.694 1.693h3.74c.932 0 1.694-.762 1.694-1.693v-3.741c0-.932-.762-1.694-1.693-1.694m0 1.258c.236 0 .436.2.436.436v3.741c0 .236-.2.435-.436.435h-3.741a.441.441 0 0 1-.436-.435v-3.741c0-.236.2-.436.436-.436h3.74M41.032 32.59h-3.74a1.7 1.7 0 0 0-1.695 1.694v3.741c0 .931.763 1.693 1.694 1.693h3.741c.932 0 1.693-.762 1.693-1.693v-3.741c0-.932-.76-1.694-1.693-1.694m0 1.258c.236 0 .436.2.436.436v3.741c0 .236-.2.435-.436.435h-3.74a.44.44 0 0 1-.436-.435v-3.741c0-.236.2-.436.435-.436h3.741"/></g></svg>