<svg width="54" height="54" viewBox="0 0 54 54" xmlns="http://www.w3.org/2000/svg"><g fill="#000" fill-rule="evenodd"><path d="M42.56 46.594a.903.903 0 0 1-.902.902h-29.16a.903.903 0 0 1-.903-.902V17.578h9a2.317 2.317 0 0 0 2.316-2.314V6.349h18.747c.497 0 .902.405.902.902v39.343zM21.653 6.824v8.44c0 .583-.474 1.057-1.057 1.057h-8.5l9.557-9.497zm20.005-1.732H21.612L10.337 16.296v30.298a2.16 2.16 0 0 0 2.16 2.16h29.16a2.16 2.16 0 0 0 2.16-2.16V7.25a2.16 2.16 0 0 0-2.16-2.16z"/><path d="M35.32 23.077H17.908a.63.63 0 0 1 0-1.257H35.32a.628.628 0 0 1 0 1.257M35.32 33.878H17.908a.63.63 0 0 1 0-1.258H35.32a.629.629 0 0 1 0 1.258M28.532 28.015H17.909a.63.63 0 0 1 0-1.258h10.623a.629.629 0 0 1 0 1.258M28.532 38.815H17.909a.63.63 0 0 1 0-1.258h10.623a.629.629 0 0 1 0 1.258"/></g></svg>