<svg width="54" height="54" viewBox="0 0 54 54" xmlns="http://www.w3.org/2000/svg"><g fill="#000" fill-rule="evenodd"><path d="M42.56 46.594a.903.903 0 0 1-.902.902h-29.16a.903.903 0 0 1-.903-.902V17.578h9a2.317 2.317 0 0 0 2.316-2.314V6.349h18.747c.497 0 .902.405.902.902v39.343zM21.653 6.824v8.44c0 .583-.474 1.057-1.057 1.057h-8.5l9.557-9.497zm20.005-1.732H21.612L10.337 16.296v30.298a2.16 2.16 0 0 0 2.16 2.16h29.16a2.16 2.16 0 0 0 2.16-2.16V7.25a2.16 2.16 0 0 0-2.16-2.16z"/><path d="M29.183 28.48c.035.014.072.024.107.04h-.107v-.04zm0-9.17h9.21v9.21h-6.8a6.533 6.533 0 0 0-2.41-1.378V19.31zm-1.952 19.393a5.306 5.306 0 0 1-5.299-5.3c0-.29.03-.572.074-.849h5.148l-2.218-3.92a5.264 5.264 0 0 1 2.295-.53c.236 0 .467.02.695.05v1.623h3.16a5.276 5.276 0 0 1 1.445 3.625 5.306 5.306 0 0 1-5.3 5.301zm-11.189-7.407l4.478-7.914 2.73 4.824a6.57 6.57 0 0 0-2.222 3.09h-4.986zm7.83-1.989l1.126 1.99h-2.627a5.334 5.334 0 0 1 1.501-1.99zm4.054-2.424a6.508 6.508 0 0 0-3.61.655L20.52 20.83l-6.634 11.725h6.85c-.036.28-.062.56-.062.848a6.565 6.565 0 0 0 6.557 6.558 6.564 6.564 0 0 0 6.557-6.558 6.513 6.513 0 0 0-1.098-3.625h6.961V18.051H27.926v8.832z"/></g></svg>