<svg width="54" height="54" viewBox="0 0 54 54" xmlns="http://www.w3.org/2000/svg"><g fill="#000" fill-rule="evenodd"><path d="M28.58 14.998h4.644v-1.33H28.58v1.33zM21.516 14.998h4.643v-1.33h-4.643v1.33zM28.581 19.288h4.643v-1.331h-4.643zM21.516 19.288h4.643v-1.331h-4.643zM28.581 23.577h4.643v-1.332h-4.643zM21.516 23.577h4.643v-1.332h-4.643zM28.581 27.865h4.643v-1.332h-4.643zM21.516 27.865h4.643v-1.332h-4.643zM28.581 32.154h4.643v-1.332h-4.643zM21.516 32.154h4.643v-1.332h-4.643zM28.581 36.443h4.643v-1.332h-4.643zM21.516 36.443h4.643v-1.332h-4.643zM28.581 40.732h4.643v-1.331h-4.643zM21.516 40.732h4.643v-1.331h-4.643z"/><path d="M42.523 44.265h-5.999V19.214h5.999c.334 0 .604.27.604.603v23.845c0 .333-.27.603-.604.603zm-7.256 0H19.472V10.738c0-.333.27-.603.603-.603h14.59c.332 0 .602.27.602.603v33.527zm-17.053 0h-5.997a.603.603 0 0 1-.604-.603V28.395c0-.333.27-.603.604-.603h5.997v16.473zm18.31-26.31v-7.431c0-.91-.736-1.647-1.646-1.647H19.863c-.91 0-1.648.738-1.648 1.647v16.01h-6.211c-.91 0-1.648.738-1.648 1.648v15.693c0 .91.738 1.648 1.648 1.648h30.733c.91 0 1.647-.737 1.647-1.648V19.603c0-.91-.737-1.647-1.647-1.647h-6.212z"/></g></svg>