<svg width="54" height="54" viewBox="0 0 54 54" xmlns="http://www.w3.org/2000/svg"><g fill="#000" fill-rule="evenodd"><path d="M26.832 42.91l-14.445-.027a6.815 6.815 0 0 1-.045-.399l-.005-.053-.007-.047a3.408 3.408 0 0 1 .582-2.367c.866-1.25 2.628-2.066 5.23-2.423l.873-.115c2.123-.268 4.318-.545 5.082-2.632.729-1.979-.676-3.649-1.144-4.206-.325-.38-.61-.714-.862-1.004-1.22-1.41-1.408-1.627-1.795-3.05-.546-2.005-1.332-3.149-1.81-3.846l-.076-.11c1.172-1.22 1.012-2.488.79-3.174-.099-.356-1.16-4.4.8-7.2 1.023-1.445 2.318-2.857 5.806-2.986.5.533 1.32 1.312 2.971 1.94 1.125.431 2.087.636 2.723.772.325.07.866.184.986.27 2.03 2.893.707 7.578.706 7.585-.321.962-.187 2.215.734 3.03-.48.695-1.214 1.822-1.725 3.721-.387 1.423-.574 1.64-1.792 3.048l-.869 1.012c-.296.352-.974 1.168-1.235 2.226.52-.806 1.59-1.06 2.364-1.61l.694-.809c1.255-1.45 1.591-1.84 2.052-3.537.488-1.814 1.175-2.802 1.633-3.465.398-.578.445-.674.421-.917-.012-.135-.012-.135-.467-.435-.906-.559-.726-1.54-.618-1.866.015-.046 1.525-5.292-.868-8.706-.318-.452-.674-.548-1.754-.778-.678-.144-1.524-.329-2.535-.716-1.56-.593-2.215-1.31-2.65-1.785-.084-.09-.2-.216-.244-.247-4.296 0-6.067 1.7-7.36 3.526-2.399 3.43-.989 8.25-.976 8.295.38 1.13-.384 1.841-.637 2.074-.22.204-.302.281-.334.638-.018.245.023.34.425.92.452.658 1.14 1.652 1.631 3.46.463 1.701.801 2.091 2.058 3.545.253.29.533.618.853.994.384.456 1.4 1.661.922 2.955-.502 1.375-2.079 1.57-4.074 1.821l-.864.115c-2.973.408-5.024 1.401-6.1 2.955-1.094 1.573-.799 3.222-.788 3.291.067.78.165.932.252 1.546l15.49.03h3.191c-.269-.393-.408-.827-.553-1.259h-2.637zM39.466 33.581l-4.618 5.807-1.857-2.04a.629.629 0 1 0-.947.826l2.355 2.613a.629.629 0 0 0 .474.215h.016a.627.627 0 0 0 .478-.24l5.087-6.404a.629.629 0 0 0-.988-.777"/><path d="M35.508 28.779a8.948 8.948 0 1 0 0 17.896 8.948 8.948 0 0 0 0-17.896m0 1.258c4.24 0 7.69 3.45 7.69 7.69s-3.45 7.69-7.69 7.69-7.69-3.45-7.69-7.69 3.45-7.69 7.69-7.69"/></g></svg>