<svg width="54" height="54" viewBox="0 0 54 54" xmlns="http://www.w3.org/2000/svg"><g fill="#000" fill-rule="evenodd"><path d="M44.126 47.84c-.152 0-.293-.015-.431-.045a2.1 2.1 0 0 1-1.559-2.477c.149-1.132-.113-2.188-.78-3.149-1.088-1.573-3.219-2.586-6.332-3.012l-.954-.126c-2.327-.292-4.337-.545-5.031-2.423-.652-1.765.634-3.306 1.119-3.886.374-.441.69-.809.976-1.135 1.357-1.573 1.674-1.941 2.141-3.673.569-2.114 1.369-3.268 1.897-4.032.089-.128.247-.357.326-.493-1.296-.784-1.436-2.039-1.131-2.927.007-.027 1.568-5.594-.884-9.095-.2-.284-.375-.352-1.561-.61a18.282 18.282 0 0 1-2.9-.814c-1.859-.71-2.681-1.6-3.172-2.131l-.076-.084c-4.491.068-6.17 1.913-7.391 3.644-2.457 3.507-1.012 8.601-.997 8.652.246.739.297 1.863-.883 2.951-.058.054-.13.121-.147.144.001 0-.012.037-.024.159.021.113.251.443.36.603.536.778 1.33 1.933 1.902 4.031.474 1.747.763 2.081 2.15 3.686l.948 1.109c.445.525 1.792 2.116 1.137 3.903-.69 1.88-2.703 2.132-5.033 2.425l-.954.123c-3.11.427-5.242 1.442-6.33 3.014-.666.959-.927 2.017-.776 3.144l.01.077c.216 1.061-.474 2.136-1.579 2.396l-.288-1.223a.832.832 0 0 0 .626-.977l-.015-.106c-.194-1.449.138-2.803.988-4.027 1.297-1.873 3.719-3.067 7.198-3.544l.962-.125c2.289-.287 3.604-.503 4.01-1.611.404-1.099-.553-2.229-.913-2.653l-.942-1.103c-1.432-1.656-1.864-2.155-2.413-4.178-.515-1.891-1.236-2.94-1.714-3.635-.437-.632-.634-.915-.586-1.444.056-.596.253-.818.569-1.111.388-.358.798-.867.54-1.642-.015-.044-1.716-5.648 1.166-9.761 1.531-2.172 3.642-4.181 8.676-4.181h.179l.152.095c.114.07.211.174.373.353.509.551 1.151 1.247 2.729 1.85.874.324 1.787.581 2.71.76 1.223.264 1.829.396 2.338 1.119 2.794 3.988 1.126 9.943 1.054 10.194-.169.496-.154 1.147.821 1.601l.235.109.089.243c.048.129.075.266.079.406.043.465-.115.723-.58 1.395-.483.697-1.208 1.745-1.722 3.648-.54 2.008-1.004 2.547-2.38 4.143-.311.354-.623.716-.978 1.136-.398.475-1.311 1.57-.912 2.652.41 1.108 1.722 1.324 4.008 1.612l.966.127c3.479.476 5.901 1.666 7.199 3.542.85 1.227 1.184 2.579.99 4.022l-.018.113a.832.832 0 0 0 .615.981.709.709 0 0 0 .148.013v1.258zM41.484 21.685c.681 0 1.213.503 1.213 1.183 0 .651-.532 1.183-1.213 1.183-.65 0-1.184-.532-1.184-1.183 0-.68.534-1.183 1.184-1.183m-.62-6.418v-1.716c0-2.869 4.938-3.55 4.938-6.536 0-1.539-1.3-3.077-3.637-3.077-2.722 0-3.964 1.775-4.26 2.071-.118.118-.236.207-.503.03l-.296-.208c-.295-.207-.206-.384-.089-.562 0 0 1.627-2.514 5.236-2.514 2.988 0 4.88 1.745 4.88 4.171 0 3.904-4.968 4.554-4.968 6.655v1.686c0 .266-.119.414-.385.414h-.563c-.265 0-.354-.207-.354-.414"/></g></svg>