<svg width="54" height="54" viewBox="0 0 54 54" xmlns="http://www.w3.org/2000/svg"><g fill="#000" fill-rule="evenodd"><path d="M31.122 18.514H19.936a.58.58 0 0 0 0 1.157h11.186a.58.58 0 0 0 0-1.157M19.936 23.143h6.943a.578.578 0 0 0 0-1.157h-6.943a.58.58 0 0 0 0 1.157M31.122 25.457H19.936a.58.58 0 0 0 0 1.157h11.186a.58.58 0 0 0 0-1.157M26.879 28.928h-6.943a.578.578 0 0 0 0 1.157h6.943a.58.58 0 0 0 0-1.157M23.022 32.786h-3.086a.58.58 0 0 0 0 1.157h3.086a.58.58 0 0 0 0-1.157"/><path d="M32.862 35.278l.83.685 1.457 1.205.887.734c-.495.577-.952 1.059-1.187 1.247h-.035c-.179 0-.433-.025-.702-.05-.29-.029-.65-.063-.988-.063-.153 0-.435 0-.74.079.03-.539-.153-1.131-.33-1.711-.072-.235-.167-.543-.198-.712.141-.268.53-.811 1.006-1.414zm1.13-6.935c-5.078 0-9.209 4.132-9.209 9.21 0 .907.138 1.801.397 2.658h-9.104a.333.333 0 0 1-.332-.333V13.695c0-.18.153-.333.332-.333h4.942c.22.659.835 1.138 1.567 1.138h6.873c.731 0 1.346-.479 1.566-1.138h4.941c.18 0 .333.153.333.333v14.953a9.15 9.15 0 0 0-2.307-.305zM22.083 12.725a.5.5 0 0 1 .5-.5h6.873c.277 0 .502.224.502.5v.117a.502.502 0 0 1-.5.501h-6.874a.502.502 0 0 1-.5-.501v-.117zm15.371 16.3v-15.33c0-.821-.669-1.489-1.49-1.489h-4.94a1.655 1.655 0 0 0-1.568-1.138h-6.873c-.73 0-1.347.479-1.566 1.138h-4.942c-.82 0-1.489.668-1.489 1.489v26.183c0 .821.67 1.49 1.49 1.49h9.535c.18.393.386.775.621 1.142a.629.629 0 0 0 1.06-.68 7.91 7.91 0 0 1-1.252-4.277c0-4.384 3.567-7.952 7.95-7.952a7.92 7.92 0 0 1 2.307.344v.019h.067c3.228 1.012 5.577 4.031 5.577 7.589 0 4.384-3.566 7.951-7.95 7.951a7.933 7.933 0 0 1-4.053-1.113c-.263-.153-.41-.317-.442-.488-.044-.243.115-.606.422-.979l1.166-1.313.08.066a.24.24 0 0 0 .21.053.275.275 0 0 0 .147-.1l.99-1.198c.087-.105.326-.138.612-.138.276 0 .597.03.868.057.303.029.583.055.822.055.21 0 .388-.02.521-.079.586-.257 2.108-2.144 2.278-2.356a.345.345 0 0 0 .072-.189.26.26 0 0 0-.09-.224L36.92 37l1.58-1.911a.274.274 0 0 0 .061-.202.273.273 0 0 0-.099-.187l-.508-.42a.283.283 0 0 0-.39.037l-1.578 1.91-1.529-1.263 1.578-1.91a.27.27 0 0 0 .062-.202.276.276 0 0 0-.098-.188l-.509-.42a.274.274 0 0 0-.173-.06.28.28 0 0 0-.216.097l-1.578 1.911-.637-.526a.235.235 0 0 0-.148-.053.29.29 0 0 0-.105.022.384.384 0 0 0-.137.104c-.179.211-1.748 2.077-1.89 2.701-.07.304.076.781.245 1.333.163.532.386 1.26.217 1.466l-.982 1.152c-.02.023-.108.119-.11.21a.195.195 0 0 0 .077.158l.061.051-1.15 1.297c-.574.696-.818 1.394-.706 2.019.1.551.452 1.006 1.043 1.35a9.185 9.185 0 0 0 4.69 1.286c5.078 0 9.21-4.131 9.21-9.209 0-3.853-2.38-7.155-5.746-8.528z"/></g></svg>