<svg width="54" height="54" viewBox="0 0 54 54" xmlns="http://www.w3.org/2000/svg"><g fill="#000" fill-rule="evenodd"><path d="M27.135 14.233a9.054 9.054 0 0 0-6.378 2.59c-1.699 1.663-2.634 3.869-2.633 6.21 0 3.49 1.338 4.906 2.888 6.544.686.725 1.327 1.406 1.897 2.302.73 1.148.576 3.966.475 5.124.001.558.511 1.046 1.137 1.046h5.231c.311 0 .6-.12.816-.334.206-.207.32-.48.32-.77-.004 0-.335-3.71.526-5.066.563-.888 1.203-1.56 1.88-2.27 1.533-1.604 2.855-2.987 2.855-6.576 0-4.852-4.044-8.8-9.014-8.8m2.617 25.073h-5.23c-1.32 0-2.394-1.052-2.394-2.344.147-1.72.12-3.781-.28-4.408-.505-.796-1.108-1.433-1.745-2.108-1.593-1.684-3.237-3.421-3.237-7.413 0-2.682 1.07-5.206 3.011-7.11a10.312 10.312 0 0 1 7.258-2.948c5.664 0 10.271 4.512 10.271 10.058 0 4.094-1.626 5.796-3.199 7.442-.663.696-1.234 1.294-1.73 2.078-.466.733-.425 3.284-.335 4.336.003.68-.24 1.27-.684 1.714a2.391 2.391 0 0 1-1.706.703M27.005 11.765a.63.63 0 0 1-.63-.63V6.552a.629.629 0 1 1 1.258 0v4.585a.629.629 0 0 1-.628.629M29.914 47.35a.63.63 0 0 1-.63.63H24.7a.629.629 0 1 1 0-1.258h4.585c.347 0 .629.28.629.629M31.418 44.425a.63.63 0 0 1-.63.629H23.22a.63.63 0 0 1 0-1.258h7.57c.346 0 .628.281.628.629M31.418 41.5a.63.63 0 0 1-.63.628H23.22a.63.63 0 0 1 0-1.258h7.57a.63.63 0 0 1 .628.63M18.286 15.943a.629.629 0 0 1-.89.016L14.1 12.773a.629.629 0 1 1 .873-.904l3.298 3.185c.25.24.257.639.016.889"/><path d="M19.73 31.689a.63.63 0 0 1 0 .89l-3.243 3.242a.63.63 0 0 1-.888-.89l3.243-3.242a.63.63 0 0 1 .889 0M15.755 24.27a.63.63 0 0 1-.628.628h-4.586a.63.63 0 0 1 0-1.257h4.586c.346 0 .628.281.628.628M35.724 15.943c.241.25.64.257.89.016l3.297-3.186a.629.629 0 1 0-.873-.904l-3.298 3.185a.629.629 0 0 0-.016.889M34.28 31.689a.63.63 0 0 0 0 .89l3.241 3.242a.63.63 0 0 0 .89-.889l-3.243-3.243a.63.63 0 0 0-.889 0M38.254 24.27a.63.63 0 0 0 .629.628h4.586a.63.63 0 0 0 0-1.257h-4.586a.629.629 0 0 0-.63.628"/></g></svg>