<svg width="54" height="54" viewBox="0 0 54 54" xmlns="http://www.w3.org/2000/svg"><path d="M48.147 34.773h-3.572a5.373 5.373 0 0 0-5.219-4.115 5.37 5.37 0 0 0-5.218 4.115H20.745a5.37 5.37 0 0 0-5.22-4.115 5.37 5.37 0 0 0-5.217 4.115H5.277V14.47h28.736v5.966c0 .312.167.47.46.47l.652.001h-.68v6.686c-1.466.404-3.921 1.888-3.921 4.41 0 .383.244.721.626.721.311 0 .604-.228.619-.539.13-2.704 3.28-3.448 3.412-3.47a.629.629 0 0 0 .523-.62v-7.187l8.032.013 4.41 6.968v6.884zm-8.79 5.373a4.12 4.12 0 0 1-4.114-4.116 4.119 4.119 0 0 1 4.113-4.114 4.12 4.12 0 0 1 4.115 4.114 4.12 4.12 0 0 1-4.114 4.116zm-23.832 0a4.12 4.12 0 0 1-4.114-4.116 4.12 4.12 0 0 1 4.114-4.114 4.12 4.12 0 0 1 4.115 4.114 4.12 4.12 0 0 1-4.116 4.116zm33.772-12.789l-4.666-7.375a.685.685 0 0 0-.577-.318l-8.1-.016a.683.683 0 0 1-.681-.684v-5.067a.685.685 0 0 0-.684-.685H4.706a.685.685 0 0 0-.685.685v21.45c0 .377.306.683.684.683h5.447a5.372 5.372 0 0 0 10.746 0h13.086a5.372 5.372 0 1 0 10.745 0h3.992a.684.684 0 0 0 .684-.683v-7.624a.677.677 0 0 0-.108-.366z" fill="#000" fill-rule="evenodd"/></svg>