<svg width="54" height="54" viewBox="0 0 54 54" xmlns="http://www.w3.org/2000/svg"><g fill="#000" fill-rule="evenodd"><path d="M27.055 32.192a2.226 2.226 0 0 0-2.224 2.223c0 1.205 1.019 2.223 2.224 2.223a2.225 2.225 0 0 0 2.223-2.223 2.2 2.2 0 0 0-2.223-2.223m.822-16.693h-1.645a.997.997 0 0 0-.972.972v3.752l.628 9.227c.055.443.508.83.969.83h.395c.462 0 .914-.388.97-.85l.627-9.25v-3.71a.998.998 0 0 0-.972-.971m-.822 17.95c.55 0 .965.416.965.966a.966.966 0 0 1-.965.965.99.99 0 0 1-.965-.965c0-.532.433-.965.965-.965m.537-16.694l-.001 3.382-.536 7.933-.538-7.89v-3.425h1.075"/><path d="M16.792 11.676v-3.15a.61.61 0 0 1 .61-.611h19.196a.61.61 0 0 1 .61.61v3.15H16.792zm0 27.526h20.416v-26.27H16.792v26.27zm19.806 7.622H17.402a.61.61 0 0 1-.61-.61v-5.755h20.416v5.755a.61.61 0 0 1-.61.61zM17.172 6.657c-.904 0-1.638.734-1.638 1.639v38.148c0 .905.734 1.638 1.638 1.638h19.656c.904 0 1.638-.733 1.638-1.638V8.296c0-.905-.734-1.64-1.638-1.64H17.172z"/><path d="M27 45.71c1.122 0 2.034-.927 2.034-2.068 0-1.14-.912-2.068-2.034-2.068-1.122 0-2.034.927-2.034 2.068S25.878 45.71 27 45.71"/></g></svg>