<svg width="54" height="54" viewBox="0 0 54 54" xmlns="http://www.w3.org/2000/svg"><g fill="#000" fill-rule="evenodd"><path d="M16.291 20.65a.63.63 0 0 0 .63-.628c0-2.702 5.132-7.538 10.183-7.538 5.052 0 10.184 4.386 10.184 7.538a.629.629 0 1 0 1.258 0c0-3.76-5.656-8.795-11.441-8.795-5.525 0-11.442 5.162-11.442 8.795a.63.63 0 0 0 .629.629M17.659 32.21c0 .81-.66 1.47-1.471 1.47h-.167c-.811 0-1.471-.66-1.471-1.47v-7.918c0-.81.66-1.47 1.47-1.47h.168c.81 0 1.47.66 1.47 1.47v7.917zm-4.37-1.322a.352.352 0 0 1-.322-.346v-4.54c0-.18.146-.335.323-.347.002.118.002.241.002.346v4.554c0 .1 0 .217-.002.333zm2.899-9.325h-.167a2.738 2.738 0 0 0-2.73 2.73v.105a1.608 1.608 0 0 0-1.582 1.603v4.541c0 .875.71 1.591 1.583 1.603v.064a2.737 2.737 0 0 0 2.729 2.73h.167a2.737 2.737 0 0 0 2.729-2.73v-7.917c0-1.5-1.228-2.729-2.73-2.729zM40.93 30.543a.35.35 0 0 1-.325.345V25.656a.35.35 0 0 1 .325.345v4.542zm-3.055 3.138h-.167c-.811 0-1.47-.66-1.47-1.471v-7.917c0-.812.659-1.471 1.47-1.471h.167c.812 0 1.47.659 1.47 1.47v7.918c0 .81-.658 1.47-1.47 1.47zm-9.716 8.55a1.95 1.95 0 0 1-1.948-1.948 1.95 1.95 0 0 1 1.948-1.95 1.95 1.95 0 0 1 1.949 1.95 1.95 1.95 0 0 1-1.95 1.948zm12.446-17.832v-.106a2.738 2.738 0 0 0-2.73-2.73h-.167a2.737 2.737 0 0 0-2.73 2.73v7.917c0 1.056.616 1.967 1.5 2.42-1.213 2.457-2.968 3.936-5.34 4.484a3.201 3.201 0 0 0-6.185 1.169 3.203 3.203 0 1 0 6.407.066c2.84-.64 4.976-2.457 6.363-5.41h.152a2.738 2.738 0 0 0 2.73-2.73v-.064a1.608 1.608 0 0 0 1.583-1.602V26c0-.875-.711-1.59-1.583-1.602z"/></g></svg>