<svg width="54" height="54" viewBox="0 0 54 54" xmlns="http://www.w3.org/2000/svg"><g fill="#000" fill-rule="evenodd"><path d="M19.936 19.672h11.186a.58.58 0 0 0 0-1.157H19.936a.58.58 0 0 0 0 1.157M19.936 23.143h6.943a.578.578 0 0 0 0-1.157h-6.943a.58.58 0 0 0 0 1.157M19.936 26.614h11.186a.58.58 0 0 0 0-1.157H19.936a.58.58 0 0 0 0 1.157M19.936 30.086h6.943a.578.578 0 0 0 0-1.157h-6.943a.58.58 0 0 0 0 1.157M23.022 32.786h-3.086a.58.58 0 0 0 0 1.157h3.086a.58.58 0 0 0 0-1.157"/><path d="M40.305 42.37a5.045 5.045 0 0 0-.12-1.784c-.245-1.038-.995-2.027-1.79-3.072-1.355-1.787-2.89-3.81-2.235-6.584a.252.252 0 0 0-.098-.26.296.296 0 0 0-.293-.033c-2.555 1.098-3.574 3.42-4.978 6.332-.155-1.397-.774-2.379-.853-2.403a.291.291 0 0 0-.33.113c-.03.047-.75 1.171-1.324 2.754-.49 1.348-.937 3.267-.5 5.047-1.08-1.357-1.743-3.06-1.743-4.927 0-4.385 3.567-7.952 7.95-7.952 4.385 0 7.953 3.567 7.953 7.952 0 1.811-.614 3.48-1.64 4.816zM16.077 40.21a.333.333 0 0 1-.332-.333V13.695c0-.18.152-.333.332-.333h4.942c.22.66.835 1.138 1.566 1.138h6.874c.73 0 1.346-.479 1.566-1.138h4.94c.18 0 .334.153.334.333v14.951a9.194 9.194 0 0 0-2.307-.303 9.21 9.21 0 0 0-8.816 11.868h-9.1zm6.007-27.487c0-.275.225-.5.5-.5h6.874c.276 0 .5.225.5.5v.118a.501.501 0 0 1-.5.501h-6.873a.502.502 0 0 1-.501-.5v-.119zm15.37 16.298V13.695a1.49 1.49 0 0 0-1.488-1.49h-4.941a1.656 1.656 0 0 0-1.567-1.138h-6.873c-.732 0-1.347.48-1.566 1.138h-4.942a1.49 1.49 0 0 0-1.49 1.49v26.183c0 .821.669 1.49 1.49 1.49h9.527a9.155 9.155 0 0 0 5.903 5.051c.088.024.13.027.156.023.09.005.179-.005.228-.052a.248.248 0 0 0 .052-.292 5.204 5.204 0 0 1-.458-1.727c-.11-1.279.308-2.338 1.238-3.148 1.724-1.503 1.953-2.23 1.86-3.038 1.637 2.054 2.157 4.356.536 8.106a.247.247 0 0 0 .055.275.29.29 0 0 0 .205.083.372.372 0 0 0 .087-.012h.002c.158-.026.287-.048.532-.102 4.119-.917 7.2-4.587 7.2-8.982 0-3.86-2.376-7.16-5.745-8.53z"/></g></svg>