<svg width="54" height="54" viewBox="0 0 54 54" xmlns="http://www.w3.org/2000/svg"><g fill="#000" fill-rule="evenodd"><path d="M20.03 43.142h5.178v-8.238H20.03v8.238zm-9.498-15.611l12.104-8.087 12.076 7.964v15.735h-8.246v-8.392c0-.61-.494-1.104-1.104-1.104h-5.486c-.61 0-1.104.494-1.104 1.104v8.392h-8.24V27.531zm-2.684-1.769l3.451-2.367v.002l.176-.123 10.993-7.542a.295.295 0 0 1 .336.004l14.842 9.923-1.036 1.494-13.547-8.935a.774.774 0 0 0-.86.002L8.834 27.153l-.986-1.391zm4.709-8.524h2.026v2.333l-2.026 1.414v-3.747zm28.114 12.507a3.245 3.245 0 0 1 3.242-3.242 3.246 3.246 0 0 1 3.242 3.242 3.246 3.246 0 0 1-2.613 3.178v-2.005l.993-.993a.629.629 0 1 0-.889-.89l-.104.105v-.758a.628.628 0 1 0-1.258 0v1.84a.622.622 0 0 0-.825.932l.825.825v.944a3.246 3.246 0 0 1-2.613-3.178zm6.545 13.398h-2.674v-8.962c2.185-.308 3.871-2.167 3.871-4.436a4.5 4.5 0 1 0-9 0c0 2.269 1.687 4.128 3.871 4.436v8.962H35.97V28.237l.046.031c.511.337 1.21.203 1.56-.301l1.154-1.664c.175-.252.241-.557.183-.858a1.122 1.122 0 0 0-.483-.732L23.512 14.696a1.555 1.555 0 0 0-1.756-.001l-5.915 4.058v-1.772a1 1 0 0 0-1.001-1.001H12.3c-.552 0-1.001.448-1.001 1.001v4.888l-4.264 2.926a1.126 1.126 0 0 0-.476.737 1.13 1.13 0 0 0 .191.857l1.125 1.587c.222.315.57.483.926.483.161 0 .32-.047.473-.119v14.803H6.216a.629.629 0 1 0 0 1.258h41a.63.63 0 0 0 0-1.258z"/><path d="M13.15 30.869h2.249V28.62H13.15v2.249zm2.306-3.507h-2.362c-.661 0-1.201.541-1.201 1.202v2.361c0 .662.54 1.202 1.201 1.202h2.362c.661 0 1.201-.54 1.201-1.202v-2.361c0-.661-.54-1.202-1.201-1.202zM21.091 30.869h2.249V28.62h-2.249v2.249zm2.306-3.507h-2.362c-.661 0-1.202.541-1.202 1.202v2.361c0 .662.541 1.202 1.202 1.202h2.362c.661 0 1.201-.54 1.201-1.202v-2.361c0-.661-.54-1.202-1.201-1.202zM29.033 30.869h2.249V28.62h-2.249v2.249zm-.057 1.258h2.362c.661 0 1.202-.54 1.202-1.202v-2.361c0-.661-.541-1.202-1.202-1.202h-2.362c-.661 0-1.201.541-1.201 1.202v2.361c0 .662.54 1.202 1.201 1.202zM13.15 37.751h2.249v-2.249H13.15v2.249zm2.306-3.506h-2.362c-.661 0-1.201.54-1.201 1.201v2.362c0 .661.54 1.201 1.201 1.201h2.362c.661 0 1.201-.54 1.201-1.201v-2.362c0-.661-.54-1.201-1.201-1.201zM29.033 37.752h2.249v-2.249h-2.249v2.249zm-.057 1.257h2.362c.661 0 1.202-.54 1.202-1.201v-2.362c0-.661-.541-1.201-1.202-1.201h-2.362c-.661 0-1.201.54-1.201 1.201v2.362c0 .661.54 1.201 1.201 1.201zM21.627 23.986a1.38 1.38 0 0 1 1.178 0h-1.178zm.589-1.389a2.647 2.647 0 0 0-2.647 2.647h5.294a2.647 2.647 0 0 0-2.647-2.646z"/></g></svg>