<svg width="27" height="27" viewBox="0 0 27 27" xmlns="http://www.w3.org/2000/svg"><title>icon-magnify</title><g id="Symbols" fill="none" fill-rule="evenodd"><g id="icon-magnify" fill=""><path d="M17.58 15.95h-.86l-.303-.294c1.064-1.238 1.705-2.846 1.705-4.595 0-3.9-3.16-7.06-7.06-7.06C7.16 4 4 7.16 4 11.06c0 3.9 3.16 7.062 7.06 7.062 1.75 0 3.358-.64 4.596-1.705l.294.304v.86L21.38 23 23 21.38l-5.42-5.43zM11 16c-2.767 0-5-2.233-5-5s2.233-5 5-5 5 2.233 5 5-2.233 5-5 5z" id="Shape"/></g></g></svg>