<svg width="17" height="17" viewBox="0 0 17 17" xmlns="http://www.w3.org/2000/svg"><path d="M5.635 8.675l-2.08 2.08a.577.577 0 0 0 0 .814l1.413 1.412a.573.573 0 0 0 .813 0l2.08-2.08a.573.573 0 0 1 .815 0l2.079 2.08c.225.225.59.225.815 0l1.41-1.412a.575.575 0 0 0 0-.814l-2.078-2.08a.573.573 0 0 1 0-.814l2.079-2.08a.576.576 0 0 0 0-.814L11.57 3.555a.576.576 0 0 0-.815 0l-2.08 2.08a.573.573 0 0 1-.813 0L5.78 3.554a.574.574 0 0 0-.813 0L3.555 4.967a.577.577 0 0 0 0 .814l2.08 2.08a.575.575 0 0 1 0 .814" fill="#000" fill-rule="evenodd"/></svg>