<svg width="54" height="54" viewBox="0 0 54 54" xmlns="http://www.w3.org/2000/svg"><path d="M21.564 28.773c.061-.13.111-.212.151-.303 1.012-2.263 2.032-4.535 3.041-6.798.06-.14.131-.293.203-.434.313-.657 1.08-.819 1.636-.576.616.263.909.97.667 1.606-.163.424-.364.828-.547 1.242-1.302 2.97-2.605 5.94-3.898 8.92-.334.757-.95.94-1.637.787-.383-.08-.645-.354-.808-.717-.404-.939-.817-1.869-1.221-2.808-1.072-2.434-2.142-4.869-3.223-7.303-.192-.434-.222-.858.02-1.272.253-.445.657-.627 1.162-.607.506.021.858.263 1.07.707.335.718.648 1.445.97 2.162l2.303 5.151c.01.061.05.121.111.243m-17.918-.435v3.697c0 .586-.333 1.03-.869 1.202-.798.253-1.616-.313-1.626-1.14-.01-.97 0-1.93 0-2.9v-7.343c0-.475.171-.849.565-1.1.406-.253.84-.284 1.263-.062.425.223.667.586.677 1.071.01.768 0 1.545 0 2.313 0 .101.01.202.02.364.101-.08.161-.122.222-.172a391.46 391.46 0 0 0 2.252-2.182c.385-.374.768-.737 1.152-1.11.536-.516 1.314-.506 1.819 0 .474.484.464 1.292-.04 1.797-.455.455-.92.89-1.374 1.333-.718.687-1.425 1.384-2.143 2.071-.05.051-.09.101-.15.172.162.192.313.373.474.545.708.798 1.446 1.566 2.293 2.222 1.152.89 2.466 1.374 3.91 1.535.434.051.464.142.464-.444v-8.333c0-.495.162-.879.585-1.15a1.252 1.252 0 0 1 1.92 1.02v10.2c0 .414-.132.768-.455 1.031a1.072 1.072 0 0 1-.657.273c-1.918.04-3.787-.193-5.545-1.02-1.07-.506-2.01-1.193-2.859-2.02-.554-.536-1.07-1.112-1.604-1.667-.071-.07-.143-.152-.212-.223a.19.19 0 0 0-.082.02m43.09-3.515c-.072.142-.133.243-.182.354l-3.425 7.272c-.273.576-.697.88-1.343.85-.242-.01-.486.01-.718-.01-.816-.052-1.645-.133-2.453-.314-1.698-.374-3.172-1.162-4.476-2.283-.787-.677-1.494-1.444-2.192-2.202-.444-.485-.424-1.192-.18-1.576.18-.283.433-.464.747-.565.363-.12.655-.334.878-.657.546-.777.303-1.878-.515-2.374-.829-.494-1.909-.222-2.334.627-.332.686-.624 1.384-.928 2.091-.93 2.212-1.838 4.424-2.757 6.626-.233.555-.668.848-1.233.828-.777-.02-1.373-.788-1.162-1.535.111-.384.284-.748.434-1.112 1.062-2.555 2.132-5.11 3.203-7.656.615-1.455 1.706-2.363 3.262-2.585 2.494-.374 4.465 1.333 4.799 3.494.2 1.364-.183 2.566-1.123 3.576-.191.212-.191.212.01.414.86.858 1.808 1.596 2.95 2.05a8.195 8.195 0 0 0 2.456.556c.15.01.301.02.453.04.173.02.263-.05.324-.202.483-1.04.97-2.07 1.453-3.11.97-2.04 1.93-4.09 2.9-6.132.181-.384.464-.636.888-.727.617-.142 1.212.212 1.445.727.343.768.716 1.526 1.081 2.283.899 1.9 1.797 3.798 2.687 5.697.343.727.697 1.454 1.03 2.192.383.838-.06 1.666-.96 1.828-.505.09-1.05-.192-1.294-.697-.291-.586-.564-1.182-.846-1.778-.92-1.949-1.84-3.899-2.769-5.848a.51.51 0 0 1-.11-.142" fill="#000" fill-rule="evenodd"/></svg>