<svg width="54" height="54" viewBox="0 0 54 54" xmlns="http://www.w3.org/2000/svg"><g fill="#000" fill-rule="evenodd"><path d="M20.703 20.908h-8.905A2.304 2.304 0 0 0 9.5 23.205v5.102a2.305 2.305 0 0 0 2.298 2.298h8.905A2.304 2.304 0 0 0 23 28.307v-5.102a2.304 2.304 0 0 0-2.297-2.297zm1.04 1.863v5.536a1.04 1.04 0 0 1-1.04 1.04h-8.905a1.04 1.04 0 0 1-1.04-1.04v-5.536h10.985z"/><path d="M17.037 41.939h1.258V29.96h-1.258zM13.954 41.939h1.258V29.96h-1.258zM9.5 26.73h1.258V13.897H9.5zM21.742 26.73H23V13.897h-1.258zM11.948 21.679h1.258v-8.324h-1.258zM19.294 21.679h1.258v-8.324h-1.258zM16.845 21.679h1.258v-8.324h-1.258zM14.397 21.679h1.258v-8.324h-1.258z"/><path d="M10.479 27.515h11.542v-1.258H10.479zM10.541 14.613h11.542v-1.258H10.541zM24.209 39.897h7.708v-3.948h-7.708v3.948zm1-1h5.708v-1.948h-5.708v1.948z"/><path d="M33.979 38.897H22.316c-.561 0-3.021 1.459-3.021 2.02v1.022H37v-1.021c0-.562-2.459-2.021-3.021-2.021m-.061 1c.36.097 1.293.633 1.824 1.042H20.553c.531-.41 1.464-.945 1.824-1.042h11.541M40.652 13.897H24.208v1h16.444c.324 0 .598.274.598.598v18.857a.606.606 0 0 1-.598.597H19.288v1h21.364c.88 0 1.598-.72 1.598-1.597V15.495c0-.88-.719-1.598-1.598-1.598"/></g></svg>