<svg width="54" height="54" viewBox="0 0 54 54" xmlns="http://www.w3.org/2000/svg"><g fill="#000" fill-rule="evenodd"><path d="M26.09 29.608a2.226 2.226 0 0 0-2.224 2.223c0 1.205 1.018 2.223 2.223 2.223a2.225 2.225 0 0 0 2.223-2.223 2.2 2.2 0 0 0-2.223-2.223m.823-16.693h-1.646a.997.997 0 0 0-.972.972v3.752l.628 9.227c.055.443.508.831.97.831h.395c.461 0 .914-.389.971-.85l.625-9.25.001-3.71a.997.997 0 0 0-.972-.972m-.823 17.951c.55 0 .965.415.965.965a.966.966 0 0 1-.965.965.99.99 0 0 1-.965-.965c0-.532.433-.965.965-.965m.537-16.694v3.382l-.537 7.933-.537-7.89v-3.425h1.074"/><path d="M26.46 9.406c-10.546 0-19.085 6.625-19.085 14.79 0 7.846 7.896 14.25 17.86 14.731.685.016 1.224.026 1.68.026.87 0 1.438-.033 2.138-.107.322-.04.663-.06.984-.12 2.49 2.322 6.028 4.824 11.17 7.485.483.25.856.37 1.115.37.576 0 .604-.583.05-1.63-1.988-3.783-2.37-7.386-2.33-10.348 2.813-2.2 4.722-5.103 5.304-8.325.366-2.607.047-4.756-.622-6.385C42.333 13.83 35.08 9.406 26.46 9.406m0 1.258c7.814 0 14.843 3.985 17.099 9.707.656 1.596.843 3.578.548 5.682-.511 2.832-2.231 5.517-4.841 7.56-.3.234-.477.592-.483.973-.05 3.693.604 6.968 1.995 9.978-4.158-2.225-7.4-4.442-9.884-6.759a1.262 1.262 0 0 0-1.09-.316c-.177.034-.361.051-.544.07-.122.012-.244.024-.34.036-.701.074-1.227.1-2.006.1-.447 0-.976-.009-1.62-.025-9.343-.45-16.662-6.369-16.662-13.474 0-7.46 7.998-13.532 17.828-13.532"/></g></svg>