<svg width="54" height="54" viewBox="0 0 54 54" xmlns="http://www.w3.org/2000/svg"><g fill="#000" fill-rule="evenodd"><path d="M16.792 11.676v-3.15a.61.61 0 0 1 .61-.611h19.196a.61.61 0 0 1 .61.61v3.15H16.792zm0 27.526h20.416v-26.27H16.792v26.27zm19.806 7.622H17.402a.61.61 0 0 1-.61-.61v-5.755h20.416v5.755a.61.61 0 0 1-.61.61zM17.172 6.657c-.904 0-1.638.734-1.638 1.639v38.148c0 .905.734 1.638 1.638 1.638h19.656c.904 0 1.638-.733 1.638-1.638V8.296c0-.905-.734-1.64-1.638-1.64H17.172z"/><path d="M27 45.71c1.122 0 2.034-.927 2.034-2.068 0-1.14-.912-2.068-2.034-2.068-1.122 0-2.034.927-2.034 2.068S25.878 45.71 27 45.71"/></g></svg>