<svg width="54" height="54" viewBox="0 0 54 54" xmlns="http://www.w3.org/2000/svg"><path d="M33.057 25.43l12.289-9.739v23.506L33.056 25.43zm-10.99.787l4.527 3.555a.796.796 0 0 0 .985-.002l4.49-3.559 12.457 13.956H9.474l12.593-13.95zm-.991-.778L8.656 39.197v-23.51l12.42 9.752zm5.514 2.731L9.273 14.572h35.46L27.576 28.167a.796.796 0 0 1-.986.003zm18.43-14.855H8.98a1.59 1.59 0 0 0-1.582 1.597v24.914c0 .883.71 1.6 1.583 1.6h36.04c.872 0 1.583-.717 1.583-1.6V14.912c0-.882-.711-1.597-1.583-1.597z" fill="#000" fill-rule="evenodd"/></svg>