<svg width="54" height="54" viewBox="0 0 54 54" xmlns="http://www.w3.org/2000/svg"><g fill="#000" fill-rule="evenodd"><path d="M42.56 46.594a.903.903 0 0 1-.902.902h-29.16a.903.903 0 0 1-.903-.902V17.578h9a2.317 2.317 0 0 0 2.316-2.314V6.349h18.747c.497 0 .902.405.902.902v39.343zM21.653 6.824v8.44c0 .583-.474 1.057-1.057 1.057h-8.5l9.557-9.497zm20.005-1.732H21.612L10.337 16.296v30.298a2.16 2.16 0 0 0 2.16 2.16h29.16a2.16 2.16 0 0 0 2.16-2.16V7.25a2.16 2.16 0 0 0-2.16-2.16z"/><path d="M16.988 29.172a2.512 2.512 0 0 0 2.504-2.51c0-1.328-1.153-2.345-2.504-2.345h-2.62v4.855h2.62zm-3.874-5.791c0-.164.132-.312.313-.312h3.643c2.027 0 3.692 1.641 3.692 3.626 0 2.034-1.665 3.691-3.675 3.691h-2.72v3.856a.323.323 0 0 1-.313.311h-.627a.312.312 0 0 1-.313-.311V23.381zM25.92 33.422c2.702 0 4.664-1.92 4.664-4.626 0-2.691-1.962-4.61-4.664-4.61h-2.473v9.236h2.473zM22.195 23.38c0-.164.132-.311.297-.311h3.692c3.18 0 5.785 2.576 5.785 5.726 0 3.182-2.605 5.758-5.785 5.758h-3.692c-.165 0-.297-.148-.297-.312V23.38zM33.765 23.381c0-.164.132-.312.313-.312h6.494c.18 0 .314.148.314.312v.476a.313.313 0 0 1-.314.311h-5.537v4.496h4.73c.165 0 .312.147.312.311v.476a.323.323 0 0 1-.312.312h-4.73v4.479a.323.323 0 0 1-.314.311h-.643a.312.312 0 0 1-.313-.311V23.381z"/></g></svg>