<svg width="54" height="54" viewBox="0 0 54 54" xmlns="http://www.w3.org/2000/svg"><g fill="#000" fill-rule="evenodd"><path d="M23.791 7.732c-8.854 0-16.059 6.063-16.059 13.517 0 4.32 1.697 8.004 4.906 10.651l.229.19v6.271l6.49-3.637.215.033c.953.15 3.201.32 4.219.32 8.423 0 14.774-5.946 14.774-13.828 0-7.736-7.8-13.517-14.774-13.517zM11.609 40.51v-7.83c-3.36-2.88-5.134-6.826-5.134-11.43 0-8.148 7.768-14.776 17.316-14.776 7.568 0 16.032 6.32 16.032 14.775 0 8.6-6.892 15.085-16.032 15.085-1.013 0-3.095-.153-4.195-.302l-7.987 4.478zm29.498 7.494l-7.954-4.742a20.487 20.487 0 0 1-2.944.221c-5.623 0-8.887-2.353-11.576-4.896a.63.63 0 0 1 .865-.914c2.5 2.364 5.528 4.553 10.711 4.553.952 0 1.954-.08 2.976-.24l.224-.036 6.441 3.84v-6.28l.281-.188c3.899-2.587 6.137-6.455 6.137-10.612 0-3.703-1.764-7.167-4.965-9.755a.628.628 0 1 1 .791-.978c3.503 2.831 5.431 6.643 5.431 10.733 0 4.483-2.334 8.647-6.418 11.471v7.823z"/><path d="M30.851 23.898c-1.409 0-2.555-1.119-2.555-2.494 0-1.376 1.146-2.494 2.555-2.494 1.408 0 2.554 1.118 2.554 2.494 0 1.375-1.146 2.494-2.554 2.494M23.149 23.898c-1.408 0-2.554-1.119-2.554-2.494 0-1.376 1.146-2.494 2.554-2.494 1.409 0 2.555 1.118 2.555 2.494 0 1.375-1.146 2.494-2.555 2.494M15.447 23.898c-1.409 0-2.555-1.119-2.555-2.494 0-1.376 1.146-2.494 2.555-2.494 1.408 0 2.554 1.118 2.554 2.494 0 1.375-1.146 2.494-2.554 2.494"/></g></svg>