<svg width="54" height="54" viewBox="0 0 54 54" xmlns="http://www.w3.org/2000/svg"><g fill="" fill-rule="evenodd"><path d="M34.834 34.054c-2.099 0-3.797 1.713-3.797 3.812a3.806 3.806 0 0 0 3.797 3.81c2.1 0 3.797-1.712 3.797-3.81 0-2.1-1.697-3.812-3.797-3.812m0 1a2.808 2.808 0 0 1 2.797 2.812 2.807 2.807 0 0 1-2.797 2.81 2.807 2.807 0 0 1-2.797-2.81 2.808 2.808 0 0 1 2.797-2.812M32 30V18h4v10c.41-.076.571-.182 1-.2V17h-6v14c.254-.288.587-.621 1-1zM29 32.446c-.717 1.313-.797 2.785-.795 4.281 0 1.57.006 2.916.795 4.273H12V11h1v29h3V19h6v21h.977L23 12h6v20.446zM17 20v20h4V20h-4zm7-7v27h4V13h-4z" fill="" fill-rule="nonzero"/><path d="M37.154 27.777a8.95 8.95 0 1 0 .002 17.9 8.95 8.95 0 0 0-.002-17.9m0 1c4.383 0 7.95 3.566 7.95 7.95 0 4.383-3.567 7.949-7.95 7.949s-7.949-3.566-7.949-7.949c0-4.384 3.566-7.95 7.95-7.95" fill="" fill-rule="nonzero"/><path d="M39.46 32.925a7.399 7.399 0 0 1-1.897-.23 7.496 7.496 0 0 1 1.897-.224c.779 0 1.425.102 1.887.226a7.355 7.355 0 0 1-1.887.227m3.798-.227c0-.052-.027-.099-.039-.148-.01-.048-.017-.097-.037-.142-.028-.061-.073-.117-.118-.174-.002-.003-.004-.008-.007-.01-.528-.652-2.091-1.01-3.597-1.01-1.842 0-3.797.514-3.797 1.484 0 .017.009.028.01.043-.005.032-.018.06-.018.094v.604c0 .348.281.63.629.63a.62.62 0 0 0 .52-.297c.727.267 1.704.411 2.656.411.893 0 1.812-.128 2.525-.367v.359c-.002.145-.766.665-3.169.665a.629.629 0 1 0 0 1.258c1.094 0 2.291-.108 3.169-.453v.676c-.004.27-.909.665-2.318.665a.629.629 0 1 0 0 1.258c.816 0 1.655-.118 2.318-.39v.577c-.003.2-.951.666-2.776.666a.629.629 0 1 0 0 1.258c.939 0 4.008-.138 4.034-1.914v-5.69c.002-.018.014-.034.015-.053" fill="" fill-rule="nonzero"/></g></svg>