<svg width="54" height="54" viewBox="0 0 54 54" xmlns="http://www.w3.org/2000/svg"><g fill="#000" fill-rule="evenodd"><path d="M35.123 31.886c-3.225 0-5.836 2.025-5.836 4.522 0 2.4 2.414 4.358 5.461 4.504.209.006.375.008.514.008.266 0 .44-.01.653-.032.099-.012.203-.02.301-.037.762.71 1.844 1.475 3.416 2.289.147.076.262.113.341.113.176 0 .184-.18.015-.5-.608-1.155-.724-2.257-.713-3.162.861-.674 1.445-1.56 1.622-2.546.113-.797.015-1.454-.19-1.952-.73-1.854-2.948-3.207-5.584-3.207m0 1.258c2.039 0 3.854.99 4.421 2.427.099.24.197.66.116 1.25-.12.664-.521 1.28-1.16 1.779l-.474.37-.008.603c-.005.403.013.79.058 1.167a9.882 9.882 0 0 1-1.002-.81l-.472-.422-.616.107c-.031.005-.063.007-.094.01l-.108.012a4.391 4.391 0 0 1-.522.025 26.3 26.3 0 0 1-.453-.005c-2.352-.114-4.264-1.571-4.264-3.25 0-1.768 2.097-3.263 4.578-3.263M23.671 35.546c-1.123 0-2.034.926-2.034 2.067s.911 2.068 2.034 2.068c1.122 0 2.034-.927 2.034-2.068 0-1.14-.912-2.067-2.034-2.067"/><path d="M35.508 45.398c-4.23 0-7.671-3.441-7.671-7.671s3.44-7.672 7.67-7.672 7.673 3.442 7.673 7.672c0 4.23-3.442 7.67-7.672 7.67zm-19.56-4.602a.61.61 0 0 1-.61-.61V34.43h11.877a8.877 8.877 0 0 0-.637 3.296c0 1.08.202 2.11.554 3.069H15.948zm-.61-24.873H31.9v13.64a8.935 8.935 0 0 0-4.063 3.61h-12.5v-17.25zm0-4.408a.61.61 0 0 1 .61-.611h15.34c.338 0 .612.274.612.61v3.15H15.338v-3.15zm20.17 17.282c-.815 0-1.601.119-2.351.324V11.285c0-.905-.733-1.638-1.638-1.638H15.718c-.905 0-1.638.733-1.638 1.638v29.13c0 .906.733 1.639 1.638 1.639h11.98a8.926 8.926 0 0 0 7.81 4.603 8.93 8.93 0 0 0 8.93-8.93 8.93 8.93 0 0 0-8.93-8.93z"/></g></svg>