<svg width="54" height="54" viewBox="0 0 54 54" xmlns="http://www.w3.org/2000/svg"><g fill="#000" fill-rule="evenodd"><path d="M35.507 45.417c-4.241 0-7.691-3.45-7.691-7.69 0-4.242 3.45-7.69 7.69-7.69 4.243 0 7.694 3.45 7.694 7.691 0 4.24-3.451 7.69-7.693 7.69zm-19.802-4.545a.37.37 0 0 1-.367-.37V11.278c0-.204.164-.37.367-.37h5.979c.308.55.895.927 1.573.927h7.486c.676 0 1.258-.372 1.568-.917h5.3c.197 0 .357.168.357.374v17.84a8.93 8.93 0 0 0-2.461-.352v-.002c-4.934 0-8.95 4.015-8.95 8.95a8.88 8.88 0 0 0 .583 3.144H15.705zm7.008-30.949c0-.297.244-.54.544-.54h7.486c.302 0 .546.243.546.54v.126c0 .298-.244.54-.545.54h-7.486a.543.543 0 0 1-.545-.54v-.126zM39.206 29.59h.019V11.292c0-.899-.724-1.63-1.614-1.63h-5.09a1.795 1.795 0 0 0-1.778-1.525h-7.486c-.901 0-1.643.658-1.777 1.513h-5.775c-.896 0-1.625.73-1.625 1.628v29.224c0 .897.729 1.627 1.625 1.627h12.02c1.54 2.71 4.449 4.545 7.782 4.545 4.936 0 8.95-4.014 8.95-8.946 0-3.615-2.158-6.728-5.251-8.138z"/><path d="M19.862 17.643h12.797a.629.629 0 1 0 0-1.258H19.862a.63.63 0 0 0 0 1.258M19.862 21.341h7.619a.629.629 0 1 0 0-1.257h-7.62a.629.629 0 1 0 0 1.257M19.862 25.78h12.797a.629.629 0 1 0 0-1.259H19.862a.63.63 0 0 0 0 1.258M28.11 28.85a.629.629 0 0 0-.629-.63h-7.62a.629.629 0 0 0 0 1.258h7.62a.629.629 0 0 0 .628-.629M39.466 33.581l-4.618 5.807-1.857-2.04a.629.629 0 1 0-.947.826l2.355 2.613a.629.629 0 0 0 .474.215h.016a.627.627 0 0 0 .478-.24l5.087-6.404a.629.629 0 0 0-.988-.777"/></g></svg>