<svg width="54" height="54" viewBox="0 0 54 54" xmlns="http://www.w3.org/2000/svg"><g fill="#000" fill-rule="evenodd"><path d="M34.622 13.194h.774v-.774h-.774v.774zm.9-2.032h-1.025c-.625 0-1.132.507-1.132 1.132v1.026c0 .625.507 1.132 1.132 1.132h1.025c.625 0 1.132-.507 1.132-1.132v-1.026c0-.625-.507-1.132-1.132-1.132zM34.622 22.98h.774v-.773h-.774v.773zm.9-2.032h-1.025c-.625 0-1.132.507-1.132 1.132v1.026c0 .625.507 1.132 1.132 1.132h1.025c.625 0 1.132-.507 1.132-1.132V22.08c0-.625-.507-1.132-1.132-1.132z"/><path d="M16.017 29.955c0-.219.178-.397.397-.397H37.49c.219 0 .397.178.397.397v4.946a.397.397 0 0 1-.397.397H16.414a.397.397 0 0 1-.397-.397v-4.946zm0-4.866v-4.946c0-.219.178-.397.397-.397H37.49c.219 0 .397.178.397.397v4.946c0 .22-.178.398-.397.398H16.414a.398.398 0 0 1-.397-.398zm0-9.786v-4.946c0-.219.178-.397.397-.397H37.49c.219 0 .397.178.397.397v4.946a.398.398 0 0 1-.397.398H16.414a.398.398 0 0 1-.397-.398zm.397 21.254H37.49c.915 0 1.656-.742 1.656-1.656v-4.946c0-.915-.741-1.656-1.656-1.656h-9.861v-1.554h9.86c.916 0 1.657-.742 1.657-1.656v-4.946c0-.914-.741-1.655-1.656-1.655h-9.861V16.96h9.86c.916 0 1.657-.74 1.657-1.656v-4.946c0-.914-.741-1.655-1.656-1.655H16.414c-.914 0-1.655.741-1.655 1.655v4.946c0 .915.74 1.656 1.655 1.656h9.957v1.53h-9.957c-.914 0-1.655.74-1.655 1.654v4.946c0 .914.74 1.656 1.655 1.656h9.957V28.3h-9.957c-.914 0-1.655.741-1.655 1.656v4.946c0 .914.74 1.656 1.655 1.656z"/><path d="M34.623 32.792h.774v-.774h-.774v.774zm-.126 1.257h1.025c.625 0 1.132-.506 1.132-1.132v-1.025c0-.626-.507-1.133-1.132-1.133h-1.025c-.625 0-1.132.507-1.132 1.133v1.025c0 .626.507 1.132 1.132 1.132zM27.629 41.56v-2.201H26.37v2.2H13.826v1.259h26.348V41.56z"/></g></svg>