<svg width="54" height="54" viewBox="0 0 54 54" xmlns="http://www.w3.org/2000/svg"><g fill="#000" fill-rule="evenodd"><path d="M30.368 10.155H23.63c-.902 0-1.636.734-1.636 1.636v1.12h-4.358c-.811 0-1.471.66-1.471 1.473v27.21c0 .813.66 1.472 1.47 1.472h18.727c.812 0 1.472-.66 1.472-1.472v-27.21c0-.813-.66-1.473-1.472-1.473h-4.357v-1.12c0-.902-.734-1.636-1.637-1.636zm0 1.258a.38.38 0 0 1 .379.378v1.12h-7.495v-1.12c0-.209.169-.379.378-.379h6.738zm.379 2.756h5.615c.116 0 .214.098.214.214v27.212a.216.216 0 0 1-.214.214H17.636a.215.215 0 0 1-.213-.215v-27.21c0-.117.097-.215.213-.215h13.111z"/><path d="M34.136 26.007a.575.575 0 0 0-.258.061l-13.886 6.911a.579.579 0 0 0-.32.518v5.653c0 .319.258.579.578.579h13.886a.58.58 0 0 0 .579-.579V26.586a.578.578 0 0 0-.58-.579m-.68 1.676v10.788H20.93v-4.553l12.527-6.235"/></g></svg>