<svg xmlns="http://www.w3.org/2000/svg" width="1024" height="1024" viewBox="0 0 1024 1024"><path fill="#cd201f" d="M0 470.08v80.64c0 82.88 10.24 165.76 10.24 165.76s9.984 70.4 40.704 101.568c38.912 40.768 90.112 39.488 112.896 43.776 81.92 7.872 348.16 10.24 348.16 10.24s215.168-.256 358.4-10.624c20.096-2.432 63.744-2.56 102.656-43.392 30.72-31.104 40.704-101.632 40.704-101.632S1024 633.6 1024 550.656v-80.512c0-82.944-10.24-165.76-10.24-165.76s-9.984-70.528-40.704-101.632c-38.912-40.832-82.56-40.96-102.656-43.392C727.168 148.992 512 148.736 512 148.736s-266.24 2.304-348.16 10.24c-22.784 4.288-73.984 3.008-112.896 43.776C20.224 233.92 10.24 304.32 10.24 304.32S0 387.264 0 470.08zM406.272 644.8V357.12l276.672 144.32-276.48 143.36z"/></svg>