<svg width="54" height="54" viewBox="0 0 54 54" xmlns="http://www.w3.org/2000/svg"><g fill="#000" fill-rule="evenodd"><path d="M29.782 9.496h-13.14c-.902 0-1.637.734-1.637 1.636v31.686h-2.038v1.157h20.49v-1.157H31.42V11.132c0-.902-.735-1.636-1.637-1.636m0 1.258a.38.38 0 0 1 .38.378v31.584H16.262V11.132a.38.38 0 0 1 .38-.378h13.14"/><path d="M20.269 12.489h-2.313a.578.578 0 0 0-.578.579v2.313c0 .319.259.578.578.578h2.313c.32 0 .579-.26.579-.578v-2.313a.579.579 0 0 0-.58-.58zM18.636 14.7h.954v-.954h-.954v.954zM24.369 12.489h-2.313a.58.58 0 0 0-.58.579v2.313c0 .319.26.578.58.578h2.313c.32 0 .579-.26.579-.578v-2.313a.579.579 0 0 0-.58-.58zM22.736 14.7h.954v-.954h-.954v.954zM28.469 12.489h-2.313a.579.579 0 0 0-.58.579v2.313c0 .319.26.578.58.578h2.313a.58.58 0 0 0 .579-.578v-2.313a.58.58 0 0 0-.58-.58zM26.835 14.7h.954v-.954h-.954v.954zM24.017 19.254a.576.576 0 0 0-.142.018L18.86 20.54a.579.579 0 0 0-.425.677l1.785 8.724a.576.576 0 0 0 .835.396l2.117-1.107.534 5.32a.578.578 0 0 0 1.126.122l3.142-9.624a.578.578 0 0 0-.681-.742l-3.141.727.44-5.151a.576.576 0 0 0-.575-.628m-.76 1.47l-.36 4.202-.122 1.442a.205.205 0 0 0 .25.217l1.41-.327 1.969-.455-1.768 5.415-.212-2.114-.155-1.55a.206.206 0 0 0-.3-.161l-1.38.722-1.318.689-1.473-7.203 3.46-.876M35.406 11.725a.578.578 0 0 0-.409.987l1.432 1.432-1.295 1.296-1.433-1.432a.573.573 0 0 0-.817 0 .576.576 0 0 0 0 .818l1.432 1.432-.32.318a.578.578 0 0 0 0 .818l1.729 1.728a.58.58 0 0 0 .409.169h1.942l1.012 1.013a.582.582 0 0 0 .818 0l.23-.23.819-.82.338-.337a.578.578 0 0 0 0-.818l-1.012-1.013v-1.942c0-.153-.061-.3-.17-.41l-1.727-1.726a.577.577 0 0 0-.818 0l-.32.319-1.431-1.433a.576.576 0 0 0-.41-.17m2.57 2.654l1.048 1.048v2.182l.369.368.53.532-.425.425-.531-.531-.368-.37h-.522l-1.661.002-1.048-1.05.656-.655 1.224-1.224.728-.727M41.446 22.74c.058-1.08-.127-2.177-.445-2.674.32.497.504 1.593.445 2.673m-1.878 20.232c-.622 0-1.212-.133-1.66-.377.431.233 1.016.361 1.648.361.74 0 1.438-.174 1.916-.477.967-.609 1.496-2.08 1.18-3.276l-1.387-5.223c-.307-1.162-.478-3.076-.38-4.266-.098 1.194.074 3.108.38 4.266l1.386 5.223c.317 1.196-.21 2.666-1.178 3.277-.495.313-1.189.492-1.905.492"/><path d="M41.05 19.167l-.927.851.318.346c.182.198.468 1.236.366 2.511l-.55 6.787c-.103 1.274.073 3.24.4 4.478l1.386 5.223c.248.935-.166 2.117-.906 2.584-.396.25-.993.38-1.58.38-.502 0-.995-.095-1.351-.286-.796-.43-1.492-1.676-1.49-2.666l.023-10.83a2.711 2.711 0 0 0-.8-1.935 2.712 2.712 0 0 0-1.932-.803h-2.588v1.257h2.588c.392 0 .762.155 1.042.435.279.28.433.65.432 1.043l-.023 10.831c-.003 1.463.942 3.121 2.15 3.775.54.292 1.237.453 1.96.453.833 0 1.649-.215 2.242-.59 1.202-.76 1.839-2.503 1.45-3.97l-1.386-5.223c-.287-1.083-.453-2.94-.363-4.054l.55-6.788c.096-1.2-.08-2.794-.693-3.463l-.317-.346z"/></g></svg>