<svg width="54" height="54" viewBox="0 0 54 54" xmlns="http://www.w3.org/2000/svg"><g fill="#000" fill-rule="evenodd"><path d="M27.095 18.549c-4.644 0-8.422 3.779-8.422 8.423s3.778 8.423 8.422 8.423 8.422-3.779 8.422-8.423-3.778-8.423-8.422-8.423m0 1.258c3.95 0 7.164 3.214 7.164 7.165a7.172 7.172 0 0 1-7.164 7.164c-3.951 0-7.165-3.213-7.165-7.164a7.173 7.173 0 0 1 7.165-7.165M16.797 27.63h-6.735a.629.629 0 1 1 0-1.259h6.735a.63.63 0 0 1 0 1.258M43.938 27.63H37.4a.629.629 0 1 1 0-1.259h6.539a.629.629 0 1 1 0 1.258M19.785 20.414a.631.631 0 0 1-.445-.184l-4.762-4.763a.629.629 0 1 1 .89-.889l4.762 4.762a.63.63 0 0 1-.445 1.074M38.977 39.606a.624.624 0 0 1-.443-.185L33.91 34.8a.63.63 0 0 1 0-.89.63.63 0 0 1 .89 0l4.622 4.623a.626.626 0 0 1 0 .888.624.624 0 0 1-.444.185M27 17.426a.63.63 0 0 1-.629-.63v-6.734a.63.63 0 0 1 1.258 0v6.735a.63.63 0 0 1-.629.629M27 44.568a.629.629 0 0 1-.629-.63v-6.537a.629.629 0 0 1 1.258 0v6.538a.629.629 0 0 1-.629.629M34.215 20.414a.63.63 0 0 1-.445-1.074l4.763-4.762a.628.628 0 1 1 .889.89L34.66 20.23a.631.631 0 0 1-.445.184M15.023 39.606a.628.628 0 0 1-.445-1.073L19.2 33.91a.63.63 0 0 1 .889.89l-4.622 4.62a.628.628 0 0 1-.445.186"/></g></svg>