<svg width="54" height="54" viewBox="0 0 54 54" xmlns="http://www.w3.org/2000/svg"><path d="M39.406 30.308a.538.538 0 1 1 .775-.747.538.538 0 0 1-.775.747m-9.77 5.626l-8.824 8.546a.1.1 0 0 1-.14-.002l-9.524-9.833a.098.098 0 0 1 .002-.139l8.823-8.546a.1.1 0 0 1 .14.002l9.524 9.833a.098.098 0 0 1-.002.14M24.54 15.677a.537.537 0 0 1 .747.771.538.538 0 0 1-.76-.01.538.538 0 0 1 .013-.76m10.194-4.248a.537.537 0 1 1 .75.77.537.537 0 0 1-.75-.77m5.258 2.15a.538.538 0 1 1 .75.773.538.538 0 0 1-.75-.773m5.184 6.044a.538.538 0 1 1-.775.747.538.538 0 0 1 .775-.747m-4.07 9.037a1.825 1.825 0 0 0-2.973.521c-3.949.98-6.42 2.22-8.817 4.425l-.907-.935C32.766 28.3 39.03 24.06 43.661 21.428a1.82 1.82 0 0 0 2.397-.118 1.826 1.826 0 0 0 .044-2.583 1.826 1.826 0 0 0-2.583-.038 1.822 1.822 0 0 0-.527 1.638C38.295 23 31.952 27.298 27.513 31.748l-1.09-1.126c5.414-4.068 10.937-10.027 13.755-14.846a1.82 1.82 0 0 0 1.5-3.08 1.827 1.827 0 0 0-2.656 2.506C36.28 19.847 30.746 25.79 25.52 29.69l-1.118-1.154c3.996-3.869 7.586-8.873 10.68-14.893a1.827 1.827 0 0 0 1.341-3.098 1.827 1.827 0 0 0-2.584-.039 1.827 1.827 0 0 0-.044 2.583c.027.027.057.046.085.072-3.017 5.847-6.503 10.703-10.374 14.45l-.646-.667c1.206-1.782 1.793-5.409 2.271-9.073a1.811 1.811 0 0 0 1.053-.496 1.826 1.826 0 0 0 .044-2.583 1.827 1.827 0 1 0-2.356 2.772c-.314 2.43-.868 6.602-1.923 8.44l-.909-.939a1.388 1.388 0 0 0-1.962-.029l-8.823 8.546a1.387 1.387 0 0 0-.033 1.962l9.525 9.833c.532.55 1.41.563 1.962.03l8.823-8.547a1.388 1.388 0 0 0 .033-1.962l-.353-.364c2.16-1.983 4.34-3.092 7.86-4.002.084.245.217.476.408.674a1.825 1.825 0 0 0 2.583.04 1.825 1.825 0 0 0 .044-2.583" fill="#000" fill-rule="evenodd"/></svg>