<svg width="54" height="54" viewBox="0 0 54 54" xmlns="http://www.w3.org/2000/svg"><path d="M25.918 35.817c-.378 0-1.715-.552-3.478-7.208h6.954c-1.76 6.655-3.098 7.208-3.476 7.208zm-9.513-17.87h.002c.941.004 2.466 1.66 4.411 9.405h-8.936c2.183-8.468 3.886-9.404 4.523-9.404zm18.974-.085h.003c.721 0 2.241 1.28 4.464 9.49h-8.824c2.215-8.515 3.778-9.487 4.357-9.49zm12.063 9.49h-6.293c-2.003-7.517-3.737-10.748-5.767-10.748h-.009c-2.033.01-3.731 3.24-5.651 10.748h-7.605c-1.304-5.274-3.003-10.652-5.706-10.662h-.007c-2.108 0-4.009 3.532-5.836 10.662H6.171v1.257h14.968c1.512 5.844 2.992 8.466 4.779 8.466 1.789 0 3.268-2.623 4.777-8.466h9.491c.597 2.17 2.208 7.294 4.329 8.385l.574-1.12c-1.25-.642-2.685-4.073-3.597-7.265h5.95v-1.257z" fill="#000" fill-rule="evenodd"/></svg>