<svg width="54" height="54" viewBox="0 0 54 54" xmlns="http://www.w3.org/2000/svg"><path d="M32.012 30.18a1.478 1.478 0 0 1-.15.006c-.65 0-1.495-.363-1.883-.812l-.616-.71c-.01-.014-.027-.018-.039-.03a2.6 2.6 0 0 0 .441-1.452c0-.096-.018-.187-.028-.28l14.393 2.022-12.118 1.255zm-14.74 10.842l4.953-11.08c.264-.59 1.08-1.238 1.712-1.36l.821-.158c.03-.006.055-.024.085-.033.257.49.66.885 1.156 1.13l-8.728 11.501zm2.936-29.266l7.118 9.828c.378.522.531 1.553.32 2.162l-.279.804c-.004.012-.002.025-.006.038-.07-.006-.139-.02-.21-.02-.5 0-.963.146-1.36.39l-5.583-13.202zm5.678 14.94l.016-.047a1.348 1.348 0 0 1 2.128-.492c.034.03.07.06.101.091.232.244.377.572.377.934a1.36 1.36 0 0 1-1.358 1.358 1.36 1.36 0 0 1-1.358-1.358c0-.17.035-.335.094-.486zm20.093 1.56a1.385 1.385 0 0 0-.928-.473l-15.835-2.225a2.632 2.632 0 0 0-.66-.597l.278-.803c.347-1 .131-2.456-.489-3.312L20.801 10.43c-.296-.408-.75-.644-1.174-.644-.15 0-.297.03-.43.091-.56.26-.759.98-.462 1.623l6.101 14.431a2.678 2.678 0 0 0-.316 1.26l-.82.156c-1.039.201-2.19 1.115-2.623 2.081l-5.249 11.741c-.279.622-.14 1.34.324 1.667a.98.98 0 0 0 .571.177c.122 0 .248-.02.373-.063.272-.094.522-.286.691-.526l9.578-12.62c.1-.008.194-.037.292-.056a2.58 2.58 0 0 0 .534-.167c.073-.032.152-.055.221-.093l.617.711c.632.731 1.826 1.247 2.833 1.247.095 0 .19-.005.28-.015l12.793-1.325c.68-.07 1.23-.55 1.282-1.113a1.007 1.007 0 0 0-.238-.736z" fill="#000" fill-rule="evenodd"/></svg>