<?xml version="1.0" standalone="no"?>
<!DOCTYPE svg PUBLIC "-//W3C//DTD SVG 20010904//EN"
 "http://www.w3.org/TR/2001/REC-SVG-20010904/DTD/svg10.dtd">
<svg version="1.0" xmlns="http://www.w3.org/2000/svg"
 width="260.000000pt" height="260.000000pt" viewBox="0 0 260.000000 260.000000"
 preserveAspectRatio="xMidYMid meet">
<metadata>
Created by potrace 1.11, written by Peter Selinger 2001-2013
</metadata>
<g transform="translate(0.000000,260.000000) scale(0.100000,-0.100000)"
fill="#000000" stroke="none">
<path d="M0 1300 l0 -1300 1300 0 1300 0 0 1300 0 1300 -1300 0 -1300 0 0
-1300z m1564 772 c126 -47 206 -116 254 -220 23 -51 26 -70 27 -172 0 -104 -2
-120 -27 -172 -15 -32 -46 -77 -70 -100 l-44 -42 60 -40 c121 -82 173 -196
163 -360 -6 -122 -33 -190 -104 -266 -38 -42 -77 -71 -127 -95 -120 -59 -167
-65 -573 -65 l-363 0 0 773 c0 426 3 777 7 781 4 4 172 6 373 4 346 -4 368 -5
424 -26z"/>
<path d="M850 1321 l0 -691 318 0 c336 0 397 7 483 51 63 32 126 95 156 158
25 50 28 67 28 156 0 89 -3 106 -27 156 -49 99 -144 172 -243 186 l-46 6 71
34 c122 59 176 162 168 317 -4 62 -11 93 -31 132 -33 65 -103 127 -176 156
-53 22 -71 23 -378 26 l-323 3 0 -690z m652 620 c68 -22 131 -72 163 -131 27
-50 30 -63 30 -150 0 -112 -17 -154 -89 -217 -75 -66 -118 -73 -429 -73 l-267
0 0 288 c0 159 3 292 7 296 13 12 543 1 585 -13z m70 -652 c90 -35 141 -78
175 -147 24 -50 28 -69 28 -147 0 -80 -3 -97 -30 -150 -35 -70 -90 -116 -168
-142 -43 -14 -104 -17 -359 -21 l-308 -4 0 322 0 322 298 -4 c289 -4 299 -5
364 -29z"/>
<path d="M1000 1666 l0 -206 229 0 229 0 53 28 c68 35 99 89 99 171 0 74 -31
136 -88 176 l-44 30 -239 3 -239 3 0 -205z"/>
<path d="M1000 1000 l0 -242 248 4 c280 5 317 13 382 78 82 82 80 234 -4 315
-70 68 -114 77 -388 83 l-238 4 0 -242z"/>
</g>
</svg>
