<svg xmlns="http://www.w3.org/2000/svg" width="1024" height="1024" viewBox="0 0 1024 1024"><path fill="#0077b5" d="M872.448 872.64h-151.68V635.008c0-56.704-1.152-129.6-78.976-129.6-79.04 0-91.136 61.696-91.136 125.44V872.64h-151.68V384H544.64v66.56h1.92c20.352-38.4 69.888-78.912 143.808-78.912 153.6 0 182.08 101.12 182.08 232.768v268.032zM227.712 317.12c-48.768 0-88.064-39.488-88.064-88.128 0-48.512 39.296-88 88.064-88 48.64 0 88.064 39.488 88.064 88 0 48.64-39.488 88.128-88.064 88.128zm76.032 555.52H151.68V384h152.064v488.64zM948.224 0H75.52C33.792 0 0 33.024 0 73.792v876.416C0 990.976 33.792 1024 75.52 1024h872.64c41.728 0 75.84-33.024 75.84-73.792V73.792C1024 33.024 989.888 0 948.16 0z"/></svg>