<svg width="87" height="75" viewBox="0 0 87 75" xmlns="http://www.w3.org/2000/svg" xmlns:xlink="http://www.w3.org/1999/xlink"><title>logo-vimeo</title><defs><path id="a" d="M.747.306h85.736v74.163H.747z"/></defs><g fill="none" fill-rule="evenodd"><mask id="b" fill="#fff"><use xlink:href="#a"/></mask><path d="M68.96 51.74C57.307 66.9 47.442 74.47 39.375 74.47c-4.997 0-9.227-4.612-12.682-13.844-2.316-8.455-4.616-16.916-6.931-25.372-2.562-9.227-5.307-13.843-8.26-13.843-.639 0-2.876 1.35-6.719 4.042l-4.036-5.2c4.234-3.719 8.4-7.433 12.514-11.157 5.645-4.88 9.884-7.442 12.702-7.703 6.67-.636 10.778 3.922 12.32 13.685 1.663 10.534 2.818 17.085 3.465 19.65 1.929 8.741 4.041 13.101 6.361 13.101 1.793 0 4.48-2.826 8.077-8.499 3.596-5.667 5.514-9.984 5.78-12.946.503-4.891-1.411-7.346-5.78-7.346-2.045 0-4.172.472-6.347 1.408C54.054 6.64 62.106-.06 73.987.321c8.81.261 12.972 5.972 12.46 17.143-.382 8.345-6.21 19.772-17.487 34.276" fill="#fff" mask="url(#b)"/></g></svg>