<svg width="158" height="34" viewBox="0 0 158 34" xmlns="http://www.w3.org/2000/svg"><title>logo-neon</title><g fill="#fff" fill-rule="evenodd"><path d="M0 .829c0-.46.414-.83.874-.83h1.151l19.144 20.343h.046V1.335c0-.46.368-.874.875-.874h4.234c.46 0 .874.414.874.874v30.972c0 .46-.414.828-.874.828h-1.105L5.982 12.012h-.045V31.8c0 .46-.369.874-.875.874H.874A.905.905 0 0 1 0 31.8V.829zM45.933 1.335c0-.46.368-.875.874-.875h18.73c.507 0 .875.415.875.875v3.773a.874.874 0 0 1-.875.875H51.915v7.547h11.368c.46 0 .874.414.874.875v3.82a.873.873 0 0 1-.874.874H51.915v8.053h13.622c.507 0 .875.414.875.875V31.8a.874.874 0 0 1-.875.875h-18.73a.874.874 0 0 1-.874-.875V1.335zM97.571 27.152c5.8 0 10.585-4.74 10.585-10.539 0-5.798-4.786-10.63-10.585-10.63-5.799 0-10.539 4.832-10.539 10.63 0 5.8 4.74 10.54 10.54 10.54m0-27.153c9.203 0 16.566 7.41 16.566 16.613 0 9.205-7.363 16.521-16.567 16.521s-16.52-7.316-16.52-16.52C81.05 7.408 88.366 0 97.57 0M130.526.829c0-.46.414-.83.875-.83h1.15l19.144 20.343h.046V1.335c0-.46.368-.874.875-.874h4.234c.46 0 .874.414.874.874v30.972c0 .46-.414.828-.874.828h-1.105l-19.237-21.123h-.045V31.8c0 .46-.37.874-.875.874H131.4c-.461 0-.875-.414-.875-.874V.829z"/></g></svg>