<svg width="670" height="101" viewBox="0 0 670 101" xmlns="http://www.w3.org/2000/svg"><title>BILL WILLIS</title><path d="M38.776 47.16H9.688V10.728H38.92c12.24 0 19.872 6.768 19.872 18.288 0 11.952-8.064 18.144-20.016 18.144zm-.288 43.056h-28.8V50.472h28.08c15.552 0 25.92 6.192 25.92 19.728 0 14.112-8.352 20.016-25.2 20.016zm-32.832 3.6h33.84c15.12 0 28.368-7.056 28.368-23.184 0-12.96-9.216-21.456-20.592-22.032 9.648-1.728 15.696-9.648 15.696-20.16 0-14.688-11.808-21.312-22.752-21.312H5.656v86.688zM39.496 99H.328V1.944h39.888c13.68 0 28.08 8.064 28.08 26.496 0 8.64-3.888 15.12-9.936 19.152 8.496 3.456 14.832 10.656 14.832 23.04C73.192 90.504 57.64 99 39.496 99zm-24.48-13.68h23.472c13.392 0 19.872-4.752 19.872-15.12 0-9.936-7.632-14.832-20.592-14.832H15.016V85.32zm0-43.344h23.76c8.784 0 14.688-4.32 14.688-12.96 0-8.352-5.616-13.392-14.544-13.392H15.016v26.352zM98.08 99h-5.328V1.944h5.328V99zm-9.216 0h-5.328V1.944h5.328V99zm88.68-8.928H122.68V1.944h5.328v82.944h49.536v5.184zm0 8.928H113.32V1.944h5.328v91.872h58.896V99zm72.264-8.928h-54.864V1.944h5.328v82.944h49.536v5.184zm0 8.928h-64.224V1.944h5.328v91.872h58.896V99zm115.152.72h-14.832l-18.864-71.424-19.008 71.424h-14.544L271.504 1.944h5.616l24.768 92.592h5.904l23.616-83.376 23.04 83.376h6.192l24.768-92.592h5.904L364.96 99.72zm-7.488-9.504L334.576 7.128h-6.048l-23.76 83.088-22.464-88.272h5.616L305.2 74.52l19.296-72.576h14.4l18.288 72.432 18.144-72.432h5.616l-23.472 88.272zM413.752 99h-5.328V1.944h5.328V99zm-9.216 0h-5.328V1.944h5.328V99zm88.68-8.928h-54.864V1.944h5.328v82.944h49.536v5.184zm0 8.928h-64.224V1.944h5.328v91.872h58.896V99zm72.264-8.928h-54.864V1.944h5.328v82.944h49.536v5.184zm0 8.928h-64.224V1.944h5.328v91.872h58.896V99zm22.584 0h-5.328V1.944h5.328V99zm-9.216 0h-5.328V1.944h5.328V99zm91.128-81.792l-3.744 3.456c-10.08-12.816-19.296-15.408-29.52-15.408-18.288 0-26.784 9.216-26.784 22.176 0 13.68 12.672 19.152 24.768 23.328 16.848 5.616 25.056 10.224 25.056 23.328 0 9.648-9.216 17.856-23.76 17.856-10.944 0-21.168-4.032-29.52-15.264l4.176-3.888c6.768 8.928 14.544 13.968 25.344 13.968 12.384 0 18.432-5.328 18.432-12.672 0-10.224-8.064-13.536-21.312-18.144-13.68-4.752-28.368-10.224-28.368-28.512 0-17.424 12.96-27.36 31.968-27.36 13.248 0 23.616 4.608 33.264 17.136zm-6.768 6.336L659.464 27c-6.768-8.64-13.68-12.816-23.472-12.816-11.52 0-15.84 5.04-15.84 11.808 0 9.504 8.496 12.384 20.304 16.56 14.112 5.04 29.376 10.224 29.376 29.808 0 18.144-15.12 28.512-34.56 28.512-14.256 0-25.344-4.896-35.856-17.712l3.744-3.456c10.08 12.816 21.024 15.984 32.112 15.984 14.832 0 29.232-7.2 29.232-23.328 0-14.688-12.096-19.872-25.92-24.768-15.264-5.472-23.76-9.216-23.76-21.6 0-9.504 6.624-16.992 21.168-16.992C646.36 9 655 12.456 663.208 23.544z" fill="#000" fill-rule="evenodd"/></svg>