<svg width="31" height="88" viewBox="0 0 31 88" xmlns="http://www.w3.org/2000/svg" xmlns:xlink="http://www.w3.org/1999/xlink"><title>fron2</title><defs><path id="a" d="M0 19.523h87.225v30.475H0z"/></defs><g transform="matrix(0 1 1 0 -19 0)" fill="none" fill-rule="evenodd"><mask id="b" fill="#fff"><use xlink:href="#a"/></mask><path d="M6.225 25.098c1.85.975 2.825 2.7 3.55 4.6.075.174.25.4.4.5 1.55.7 3.125 1.424 4.7 2.175.575.224 1.15.45 1.775.75-.95-.85-1.8-1.575-2.625-2.325-1.4-1.3-2.5-2.85-2.8-4.875-.275-2.1-.05-4.175.55-6.175.025-.05.05-.1.15-.226.75.526 1.5.976 2.175 1.526 1.35 1.1 2.45 2.4 2.975 4.1.725 2.5.85 4.974.375 7.475-.05.224-.125.5-.15.675 3.575 1.325 7.125 2.4 10.85 3.15-.75-.5-1.475-.9-2.25-1.4-1.725-1.1-3.125-2.5-3.775-4.55-.575-1.526-.75-3.126-.7-4.776.025-.55.1-1.05.125-1.7.675.3 1.35.526 1.925.826 1.625.774 3.1 1.825 4.05 3.45 1.15 1.875 1.75 4.05 1.925 6.274.05.725.05 1.45.075 2.2 3.725.7 7.475 1.2 11.225 1.376-.125-.126-.3-.176-.425-.276-.725-.224-1.5-.525-2.25-.825-2.125-.9-3.8-2.325-4.725-4.575a15.9 15.9 0 0 1-1.175-4.65c-.05-.325-.05-.624-.1-.9.15 0 .225 0 .325.05.375.05.75.1 1.15.25 2.275.525 4.3 1.476 5.725 3.375 1.55 2.05 2.5 4.375 2.925 6.9.05.225.1.5.125.8 3.85.175 7.675-.1 11.525-.624-1.3-.35-2.475-.6-3.625-.85-1.7-.476-3.125-1.325-4.25-2.626-1.35-1.725-2.225-3.625-2.8-5.725-.025-.175-.1-.35-.2-.7 1.05.05 2.025.126 2.975.226 1.675.325 3.325.85 4.6 2 2.15 1.924 3.725 4.274 4.6 7.074.05.1.1.25.15.375 3.55-.675 6.975-1.525 10.375-2.675-.6-.1-1.25-.05-1.825-.1-1.95-.15-3.875-.474-5.475-1.774-1.275-1.026-2.3-2.326-3.15-3.7-.425-.776-.825-1.5-1.225-2.35.35-.05.6-.15.9-.175 2.5-.325 4.925-.3 7.15 1.05 1.825 1.125 3.35 2.6 4.6 4.325.475.624.85 1.3 1.325 1.95 3.175-1.1 6.325-2.5 9.325-4.075a.694.694 0 0 0-.45 0c-.8.075-1.65.175-2.5.225-1.55.075-3.025-.226-4.4-1.05-1.625-.925-2.9-2.125-4.075-3.55-.425-.5-.8-1.025-1.225-1.675 1.775-.65 3.475-1.076 5.25-1.076 1.025 0 2.05.15 3 .526a17.212 17.212 0 0 1 6.725 4.95c.15.25.3.25.525.125 2.4-1.4 4.7-2.85 6.95-4.526.025 0 .575.326-.75 2.375-.725.45-1.45.95-2.2 1.4-1.5.826-3.025 1.776-4.575 2.6-.375.175-.475.375-.375.826.55 2.675.45 5.4-.3 8-.525 1.925-1.7 3.4-3.25 4.575-.675.6-1.375 1.024-2.1 1.524-.1.05-.15.1-.3.15a.43.43 0 0 1-.1-.175c-.65-2.15-.975-4.325-.75-6.6.225-2.224 1.35-3.974 2.875-5.5.375-.35.7-.7 1.075-1.15-.15.1-.25.15-.4.2-2.85 1.325-5.775 2.526-8.775 3.45-.325.1-.4.25-.4.526.15 2.7-.4 5.25-1.5 7.675-.875 1.9-2.35 3.125-4.1 4.1-.8.45-1.65.8-2.6 1.25-.05-.876-.1-1.675-.125-2.425a15.136 15.136 0 0 1 .625-4.6c.575-2 1.925-3.4 3.625-4.6.35-.276.75-.5 1.05-.75-3.275.7-6.6 1.374-9.85 2.05-.325 1.2-.6 2.5-1.075 3.75-.7 1.874-1.6 3.6-3.15 4.95-1.325 1.2-4.2 2.4-5.975 2.525 0-.05-.025-.05-.025-.1.15-2.626.675-5.176 2.175-7.376.875-1.4 2.225-2.224 3.65-2.9.35-.175.675-.35 1-.55-3.25.25-6.525.3-9.775-.025-.5 1.626-1.2 3.076-2.125 4.45-1.35 2-2.925 3.65-5.35 4.376-1.275.35-2.55.525-3.825.525h-.55c.425-1.2.75-2.276 1.175-3.35.625-1.425 1.45-2.75 2.625-3.876 1.05-.924 2.325-1.424 3.625-1.8.575-.2 1.2-.325 1.8-.5-.175-.05-.275-.1-.4-.1-3.15-.325-6.25-.85-9.3-1.55-.375-.05-.55-.05-.725.25-1.275 2.5-3.05 4.45-5.35 5.975-1.625 1.025-3.475 1.225-5.3 1.125-.725-.05-1.4-.125-2.225-.225.475-.875.9-1.75 1.325-2.6 1.025-1.6 2.225-3.075 3.975-4 1.35-.75 2.85-.9 4.35-.974.475-.05.925-.05 1.425-.1-.175-.1-.3-.15-.4-.175-3.175-.85-6.275-1.875-9.3-3.175-.3-.1-.45-.1-.65.175-1.525 2.05-3.525 3.575-5.8 4.7-1.875.85-3.75.8-5.7.35-.7-.1-1.375-.35-2.05-.526l-.05-.05c.825-1.3 1.85-2.55 3.025-3.625 1.8-1.575 3.875-2.425 6.275-2.125.95.05 1.925.175 2.925.25-.125-.075-.175-.075-.25-.125-1.375-.7-2.75-1.425-4.1-2.125-.175-.05-.4-.05-.525-.05-1.3 0-2.55-.05-3.725-.425-1-.274-1.925-.65-2.625-1.375C2 27.547 1.4 26.572.85 25.497c-.325-.6-.575-1.125-.85-1.674 0-.05.05-.175.05-.226.45.05.925.175 1.4.175 1.675.1 3.275.526 4.775 1.326" fill="#c29c0e" mask="url(#b)"/></g></svg>