<svg width="84" height="84" viewBox="0 0 84 84" xmlns="http://www.w3.org/2000/svg" xmlns:xlink="http://www.w3.org/1999/xlink"><title>logo-instagram</title><defs><path id="a" d="M.002.809h83.192V84H.002z"/></defs><g fill="none" fill-rule="evenodd"><mask id="b" fill="#fff"><use xlink:href="#a"/></mask><path d="M75.726 68.108c0 4.48-3.944 8.424-8.424 8.424H15.89c-4.48 0-8.425-3.944-8.425-8.424v-34.24h12.91c-1.068 2.132-1.711 5.443-1.711 8.536 0 12.697 10.237 22.93 22.93 22.93 12.692 0 22.938-10.349 22.938-22.93 0-2.992-.643-6.404-1.71-8.536h12.904v34.24zM29.65 33.767c2.668-3.736 7.042-6.192 11.943-6.192 4.91 0 9.28 2.456 11.948 6.192 1.711 2.445 2.775 5.437 2.775 8.637 0 8.1-6.612 14.722-14.723 14.722-8.1 0-14.712-6.621-14.712-14.722 0-3.2 1.063-6.192 2.77-8.637zm29.865-23.572H71.89l1.706-.112v14.293h-14.08V10.195zM67.302.803H15.89C6.933.803.002 7.74.002 16.695V68.107C.002 77.07 6.933 84 15.89 84h51.412c8.956 0 15.892-6.931 15.892-15.892V16.695C83.194 7.74 76.258.803 67.302.803z" fill="#fff" mask="url(#b)"/></g></svg>