<svg width="169" height="46" viewBox="0 0 169 46" xmlns="http://www.w3.org/2000/svg"><title>logo-sketch</title><g fill="#fff" fill-rule="nonzero"><path d="M140.076 0h7.84v17.09c.56-.533.916-.932 1.333-1.255 3.183-2.478 6.789-3.011 10.7-2.363 2.19.363 4.181 1.057 5.838 2.568 1.55 1.413 2.522 3.173 2.86 5.202.256 1.536.324 3.115.333 4.677.035 6.263.014 12.526.014 18.79v1.264c-2.513 0-4.915.007-7.316-.005-.712-.003-.603-.548-.603-.998-.002-3.378.003-6.755-.003-10.133-.005-2.983.01-5.968-.04-8.951-.072-4.218-3.469-5.545-6.892-4.926-2.68.486-4.481 1.98-5.347 4.472-.453 1.302-.775 2.716-.799 4.086-.092 5.114-.062 10.23-.014 15.346.009.937-.284 1.162-1.174 1.134-1.948-.062-3.899-.043-5.848-.007-.74.014-.959-.254-.958-.976.018-14.724.012-29.448.016-44.172 0-.256.035-.513.06-.843zM67.314 31.4c.43 3.582 2.289 5.941 5.573 6.996 3.452 1.11 8.292.067 10.796-3.07.66-.826 1.136-.955 2.055-.356 1.512.986 3.13 1.814 4.711 2.693.556.31.751.61.304 1.204-2.562 3.4-5.908 5.55-10.125 6.5-3.035.684-6.072.886-9.092.242-5.379-1.147-9.241-4.141-11.247-9.307-1.363-3.51-1.635-7.124-.865-10.728 1.2-5.613 4.323-9.785 10.123-11.583 4.957-1.538 9.806-1.395 14.4 1.204 2.723 1.54 4.328 3.995 5.416 6.81 1.086 2.81 1.297 5.77 1.467 8.731.045.772-.514.664-1 .664H67.314zm15.06-6.01c.154-2.8-3.054-5.668-6.767-5.867-3.867-.208-7.425 2.3-8.087 5.866h14.854z"/><path d="M63 45.918c-.495.028-.807.06-1.12.06-2.442.004-4.886-.023-7.328.017-.733.013-1.2-.215-1.608-.841-2.74-4.22-5.513-8.418-8.276-12.622-.157-.24-.323-.473-.578-.844-1.354 1.4-2.662 2.72-3.919 4.088-.204.223-.244.662-.246 1.002a385.66 385.66 0 0 0 .004 8.203c.01.764-.188 1.04-.985 1.018-1.986-.056-3.974-.034-5.96-.01-.687.008-.985-.198-.984-.961.02-10.377.015-20.754.011-31.13 0-.497.008-.905.699-.898 2.341.026 4.684.01 7.156.01V25.59c1.417-1.366 2.657-2.534 3.867-3.735 2.509-2.49 4.993-5.007 7.51-7.489.28-.276.706-.557 1.067-.562 2.996-.042 5.993-.02 8.99-.013.087 0 .175.06.43.151-.238.283-.413.52-.617.73-3.596 3.67-7.183 7.35-10.806 10.993-.521.525-.556.845-.123 1.467 4.18 6.012 8.32 12.05 12.468 18.084.105.153.169.335.348.7zM0 40.137l5.784-4.375c1.106.84 2.064 1.726 3.167 2.374 2.44 1.435 5.191 1.558 7.914 1.285a5.807 5.807 0 0 0 3.695-1.834c1.136-1.232 1.063-2.377-.405-3.181-1.002-.548-2.154-.888-3.28-1.155-2.847-.676-5.751-1.14-8.569-1.912-2.793-.767-5.324-2.192-6.273-5.049-1.356-4.08-.296-8.686 4.128-11.164 1.81-1.014 3.735-1.676 5.83-1.82 1.568-.11 3.141-.351 4.703-.299 4.597.156 8.618 1.707 11.84 5.017.426.438.719.802.094 1.348-1.642 1.436-3.242 2.917-4.93 4.445-.388-.498-.757-1.011-1.166-1.492-1.458-1.716-3.343-2.694-5.612-2.768-1.492-.049-3 .09-4.486.263-.544.063-1.104.392-1.56.727-1.512 1.106-1.396 2.888.35 3.583 1.524.605 3.175.932 4.795 1.27 3.467.72 7.053 1.014 10.19 2.852 2.442 1.432 3.649 3.504 3.779 6.322.282 6.127-4.402 9.69-9.28 10.815-3.242.748-6.464.776-9.676.264-3.962-.631-7.63-2.027-10.519-4.927-.157-.157-.293-.335-.513-.59zM131.094 25.108c-.522-.874-.88-1.68-1.418-2.345-3.048-3.768-8.947-3.46-11.705.58-2.373 3.477-2.413 8.916-.092 12.434 2.686 4.07 8.787 4.293 11.731.395.75-.993 1.331-2.11 2.049-3.265l1.91.993c1.318.687 2.62 1.402 3.96 2.047.53.254.56.588.348 1.004-2.1 4.105-4.933 7.37-9.728 8.482-5.225 1.21-10.09.57-14.384-2.76-2.7-2.092-4.246-4.937-5.102-8.21-.758-2.897-.882-5.814-.288-8.703 1.182-5.75 4.313-9.974 10.179-11.807 4.547-1.42 9.014-1.367 13.297.94 2.691 1.447 4.361 3.785 5.64 6.447.242.507.177.812-.473 1.082-1.993.828-3.935 1.774-5.924 2.686z"/><path d="M90.003 14.163c1.334 0 2.465-.034 3.595.011.731.03.95-.254.944-.959-.026-3.384.009-6.77-.026-10.153-.008-.792.217-1.083 1.046-1.06 1.941.052 3.886.042 5.828.003.733-.014.948.258.943.961-.027 3.385.007 6.77-.027 10.154-.008.79.225 1.082 1.047 1.059 1.836-.052 3.675-.016 5.583-.016v5.582h-5.228c-1.385 0-1.386.001-1.387 1.368v14.215c0 .064.002.13 0 .193-.117 3.514 1.849 4.098 4.851 3.582.561-.097 1.128-.157 1.826-.252 0 2.092.011 4.046-.022 6-.002.172-.29.467-.471.488-2.573.302-5.09 1.009-7.758.456-1.684-.35-3.248-.711-4.456-1.99-1.008-1.067-1.558-2.34-1.573-3.811-.07-6.373-.143-12.746-.166-19.12-.003-.9-.265-1.21-1.16-1.143-.902.067-1.814.046-2.718-.007-.231-.014-.636-.292-.64-.457-.05-1.666-.03-3.334-.03-5.104z"/></g></svg>